<svg width="22" height="22" viewBox="0 0 22 22" fill="none" xmlns="http://www.w3.org/2000/svg">
<path d="M5.08766 16.1559C6.05016 15.4837 7.00502 14.9681 7.95225 14.609C8.89947 14.25 9.91544 14.0705 11.0002 14.0705C12.0849 14.0705 13.1047 14.25 14.0595 14.609C15.0144 14.9681 15.9731 15.4837 16.9356 16.1559C17.6078 15.3309 18.0852 14.4983 18.3679 13.658C18.6505 12.8177 18.7918 11.9316 18.7918 10.9997C18.7918 8.7844 18.047 6.93197 16.5575 5.44238C15.0679 3.9528 13.2154 3.20801 11.0002 3.20801C8.78488 3.20801 6.93245 3.9528 5.44287 5.44238C3.95329 6.93197 3.2085 8.7844 3.2085 10.9997C3.2085 11.9316 3.35363 12.8177 3.64391 13.658C3.93419 14.4983 4.41544 15.3309 5.08766 16.1559ZM10.9959 11.6872C10.1126 11.6872 9.36926 11.384 8.76579 10.7777C8.16232 10.1714 7.86058 9.4266 7.86058 8.54333C7.86058 7.66006 8.16374 6.91669 8.77005 6.31322C9.37636 5.70974 10.1212 5.40801 11.0044 5.40801C11.8877 5.40801 12.6311 5.71116 13.2345 6.31748C13.838 6.92379 14.1397 7.66858 14.1397 8.55185C14.1397 9.43512 13.8366 10.1785 13.2303 10.782C12.624 11.3854 11.8792 11.6872 10.9959 11.6872ZM11.0109 20.1663C9.75096 20.1663 8.56336 19.9257 7.44808 19.4445C6.3328 18.9632 5.35884 18.3063 4.5262 17.4736C3.69357 16.641 3.03662 15.6688 2.55537 14.5571C2.07412 13.4454 1.8335 12.2576 1.8335 10.9936C1.8335 9.72959 2.07412 8.54377 2.55537 7.43613C3.03662 6.32849 3.69357 5.35835 4.5262 4.52572C5.35884 3.69308 6.33101 3.03613 7.44272 2.55488C8.55442 2.07363 9.74227 1.83301 11.0063 1.83301C12.2702 1.83301 13.4561 2.07363 14.5637 2.55488C15.6713 3.03613 16.6415 3.69308 17.4741 4.52572C18.3068 5.35835 18.9637 6.32874 19.445 7.43687C19.9262 8.54499 20.1668 9.72902 20.1668 10.9889C20.1668 12.2489 19.9262 13.4365 19.445 14.5518C18.9637 15.667 18.3068 16.641 17.4741 17.4736C16.6415 18.3063 15.6711 18.9632 14.563 19.4445C13.4548 19.9257 12.2708 20.1663 11.0109 20.1663ZM11.0002 18.7913C11.8404 18.7913 12.6616 18.6691 13.4637 18.4247C14.2658 18.1802 15.0564 17.7525 15.8356 17.1413C15.0564 16.5913 14.262 16.1712 13.4522 15.8809C12.6425 15.5906 11.8252 15.4455 11.0002 15.4455C10.1752 15.4455 9.3578 15.5906 8.54808 15.8809C7.73836 16.1712 6.94391 16.5913 6.16475 17.1413C6.94391 17.7525 7.73454 18.1802 8.53662 18.4247C9.3387 18.6691 10.1599 18.7913 11.0002 18.7913ZM11.0002 10.3122C11.5196 10.3122 11.9436 10.1479 12.272 9.81947C12.6005 9.49099 12.7647 9.06704 12.7647 8.54759C12.7647 8.02815 12.6005 7.60419 12.272 7.27572C11.9436 6.94724 11.5196 6.78301 11.0002 6.78301C10.4807 6.78301 10.0568 6.94724 9.72829 7.27572C9.39982 7.60419 9.23558 8.02815 9.23558 8.54759C9.23558 9.06704 9.39982 9.49099 9.72829 9.81947C10.0568 10.1479 10.4807 10.3122 11.0002 10.3122Z" fill="#10CFA8"/>
</svg>
