<svg width="16" height="20" viewBox="0 0 16 20" fill="none" xmlns="http://www.w3.org/2000/svg">
<path d="M3.279 16.5772H4.654V15.2022H3.279V16.5772ZM3.279 13.0022H4.654V9.19808H3.279V13.0022ZM7.2665 16.5772H8.6415V12.6814H7.2665V16.5772ZM7.2665 10.5731H8.6415V9.19808H7.2665V10.5731ZM11.4373 16.5772H12.8123V15.2022H11.4373V16.5772ZM11.4373 13.0022H12.8123V9.19808H11.4373V13.0022ZM2.0415 19.1668C1.67484 19.1668 1.354 19.0293 1.079 18.7543C0.804004 18.4793 0.666504 18.1585 0.666504 17.7918V6.31058L6.14359 0.833496H13.9582C14.3248 0.833496 14.6457 0.970996 14.9207 1.246C15.1957 1.521 15.3332 1.84183 15.3332 2.2085V17.7918C15.3332 18.1585 15.1957 18.4793 14.9207 18.7543C14.6457 19.0293 14.3248 19.1668 13.9582 19.1668H2.0415ZM2.0415 17.7918H13.9582V2.2085H6.76234L2.0415 6.93219V17.7918Z" fill="white"/>
</svg>
