<svg width="364" height="247" viewBox="0 0 364 247" fill="none" xmlns="http://www.w3.org/2000/svg">
<g clip-path="url(#clip0_1_3)">
<path d="M237.071 121.272C230.514 125.516 235.154 126.679 232.832 129.004C230.514 131.318 228.593 139.43 233.989 132.864C239.389 126.299 242.47 115.869 242.47 115.869C239.389 115.865 243.624 117.031 237.071 121.272Z" fill="#10CFA8"/>
<path d="M163.368 6.46167C169.889 5.44631 171.071 1.38131 174.035 0C166.249 0.896956 158.792 2.88461 151.813 5.80868C145.904 9.3104 145.657 10.4764 145.657 10.4764C145.657 10.4764 152.698 8.11924 163.368 6.46167Z" fill="#10CFA8"/>
<path d="M167.643 18.8683C173.279 19.1589 173.433 17.8493 173.433 17.8493C173.282 15.8258 172.279 15.2446 170.831 13.9386C169.384 12.6398 171.261 12.2021 171.261 12.2021C167.782 11.6209 169.23 14.2256 169.817 15.2446C170.387 16.2635 167.643 18.8683 167.643 18.8683Z" fill="#10CFA8"/>
<path d="M162.863 18.0036C166.338 19.0118 167.062 15.5387 167.062 15.5387C168.069 13.6551 159.402 16.9918 162.863 18.0036Z" fill="#10CFA8"/>
<path d="M115.385 111.628C117.112 105.432 115.955 103.512 115.955 103.512L113.446 103.121C112.099 97.707 106.51 96.7491 106.51 96.7491C106.119 92.1172 103.228 91.7333 103.228 91.7333C105.037 86.574 102.737 82.5305 101.307 80.6792C101.3 81.0487 101.282 81.4255 101.282 81.7986C101.282 98.7618 106.427 114.545 115.238 127.662C115.944 126.474 117.305 126.872 117.305 126.872C116.155 125.322 113.633 117.802 115.385 111.628Z" fill="#10CFA8"/>
<path d="M175.744 92.6915C175.744 92.6915 183.461 89.5952 182.301 98.8661C181.14 108.137 182.688 104.664 185.002 108.137C187.313 111.628 190.398 115.478 186.532 124.745C182.688 134.02 192.337 134.787 193.1 144.449C193.881 154.101 201.591 147.926 203.895 147.926C206.217 147.926 215.866 142.516 216.636 138.264C217.407 134.02 217.407 137.109 217.407 137.109C217.407 137.109 222.412 135.175 220.868 130.159C220.868 130.159 231.671 122.818 230.897 118.578C230.13 114.319 223.956 107.373 235.533 96.9395C247.103 86.5061 243.623 80.3207 244.014 76.4709L236.303 79.1726C236.303 79.1726 227.812 66.0376 224.727 63.7234C221.653 61.3985 219.338 51.3562 216.636 48.6582C216.636 48.6582 228.596 57.9255 235.92 74.921C235.92 74.921 249.417 68.3589 248.654 58.6969C247.877 49.0385 241.721 57.538 239.392 54.4489C237.074 51.3562 232.061 45.9529 235.153 45.9529C238.228 45.9529 242.867 53.6775 251.345 52.1276C251.345 52.1276 260.99 57.538 263.312 74.921C263.312 74.921 263.892 68.9258 262.943 60.315C255.591 33.1337 234.688 11.4704 207.958 3.13588C206.135 4.79345 203.695 6.85286 201.975 7.71753C201.975 7.71753 200.431 5.39979 195.411 4.62841C190.395 3.85703 188.467 2.31068 183.841 6.55149C179.208 10.8066 179.208 8.4925 179.208 8.4925C179.208 8.4925 178.821 12.353 183.458 10.8066C183.458 10.8066 183.458 14.6707 188.08 13.5119C192.709 12.353 184.612 10.0388 190.015 7.32646C195.411 4.632 190.785 6.55149 192.709 10.0424C194.644 13.5154 200.81 14.6707 191.942 15.8332C183.071 16.9956 183.071 13.9029 176.51 18.1509C169.954 22.3989 167.252 21.6311 167.252 21.6311C167.252 21.6311 174.966 30.8984 159.918 28.1968C159.918 28.1968 157.994 29.3521 158.373 35.5339C158.771 41.7121 158.771 36.6928 158.771 36.6928C158.771 36.6928 158.771 35.5339 163.017 37.4642C167.256 39.398 168.022 32.434 171.498 30.8949C174.97 29.3521 172.275 28.5807 181.914 26.6469C181.914 26.6469 184.612 30.8949 188.857 32.434C193.096 33.984 190.015 35.1392 190.015 35.1392C190.015 35.1392 192.333 36.3017 192.709 32.8251C192.709 32.8251 181.14 25.4808 186.923 25.8719C192.709 26.2594 195.031 33.209 200.81 37.4606C200.81 37.4606 197.729 28.961 203.888 32.4304C210.076 35.9142 210.076 35.1357 217.794 37.0731C217.794 37.0731 222.029 47.8868 211.609 45.5655C201.201 43.2513 202.351 43.2513 200.04 44.4138C197.718 45.5655 200.04 50.2081 192.329 46.344C184.608 42.4799 180.369 41.3175 182.68 38.6194C182.68 38.6194 176.897 35.5267 172.655 38.2319C168.406 40.9443 164.558 41.3175 161.086 40.1658C161.086 40.1658 154.518 42.096 153.368 47.119C152.211 52.1348 142.562 53.3044 140.247 64.8895C137.943 76.4781 140.634 83.4277 150.659 91.9273C150.659 91.9273 158.764 89.9863 162.243 91.9273C162.25 91.9201 168.413 85.7311 175.744 92.6915ZM214.655 30.8913C214.254 30.7083 212.767 29.1548 209.736 30.4536C206.704 31.7595 201.344 29.8759 206.848 24.2323C206.848 24.2323 209.302 23.3604 210.169 25.976C210.169 25.976 210.309 23.364 214.655 22.7828C214.655 22.7828 212.634 23.9417 213.354 25.3947C213.498 25.671 213.569 25.854 213.602 25.9831C215.558 26.5715 222.19 28.7278 220.588 30.4571C218.707 32.4843 216.532 31.7595 214.655 30.8913Z" fill="#10CFA8"/>
<g clip-path="url(#clip1_1_3)">
<path d="M268.535 109.246L268.54 109.236L268.544 109.225C268.661 108.955 268.868 108.521 269.235 107.753C269.281 107.659 269.328 107.559 269.379 107.453C269.781 106.612 270.29 105.539 270.756 104.461C271.194 103.447 271.742 102.094 272.109 100.736C272.288 100.076 272.526 99.0492 272.58 97.8622C272.622 96.964 272.668 94.2825 270.843 91.6762L270.842 91.6742C266.478 85.4428 258.935 86.1808 254.965 87.73C250.098 89.6291 245.979 93.7644 243.449 99.5377L243.446 99.5443C240.979 105.188 238.494 109.118 236.724 111.546C236.579 111.746 236.438 111.935 236.303 112.115C236.239 112.105 236.175 112.096 236.112 112.087L236.103 112.086L236.094 112.084C232.666 111.602 229.071 112.3 226.39 112.968C223.463 113.697 220.307 114.75 217.35 115.784C216.101 116.22 214.893 116.65 213.729 117.064C208.935 118.767 204.867 120.213 201.635 120.856C200.452 121.09 198.777 121.004 195.377 120.321C194.73 120.191 194.006 120.036 193.218 119.866C190.374 119.255 186.702 118.467 182.878 118.07L182.869 118.069C167.401 116.48 152.185 118.191 140.392 126.457C128.209 134.995 121.531 149.184 120.598 168.382L119.66 187.693L135.041 175.978C142.203 170.524 147.804 168.191 152.525 167.252C157.295 166.303 161.87 166.628 167.43 167.549C169.085 167.823 170.826 168.155 172.658 168.505C183.074 170.495 196.457 173.051 214.127 168.667C222.846 166.51 231.12 160.75 237.464 155.541C242.708 151.234 247.434 146.605 250.631 143.473C251.385 142.734 252.054 142.079 252.625 141.531L252.632 141.524C254.917 139.325 256.708 136.46 258.083 133.921C259.529 131.253 260.875 128.259 262.099 125.337C263.269 122.541 264.397 119.642 265.429 116.987L265.58 116.598C266.678 113.774 267.648 111.294 268.535 109.246Z" fill="#10CFA8" stroke="white" stroke-width="18"/>
</g>
</g>
<path d="M36.394 219.439H27.2595L24.6152 212.731H11.4422L8.94226 219.439H0L14.2788 185.273H22.2595L36.394 219.439ZM22.3556 206.12L18.1249 194.394L13.798 206.12H22.3556Z" fill="#10CFA8"/>
<path d="M62.1398 219.439H54.5437V216.109H54.4476C53.3418 218.233 50.6014 220.115 47.2361 220.115C40.7938 220.115 38.5342 215.096 38.5342 210.27V195.407H46.4668V208.436C46.4668 211.139 47.1399 213.552 50.0245 213.552C52.7649 213.552 54.2553 211.139 54.2553 208.388V195.407H62.1398V219.439Z" fill="#10CFA8"/>
<path d="M84.1713 194.924L83.8348 201.873C83.1136 201.68 82.4406 201.632 81.8156 201.632C77.5848 201.632 76.1906 205.107 76.1906 207.085V219.439H68.306V195.407H75.9021V198.882H75.9983C77.2002 196.469 79.556 194.731 82.4886 194.731C83.1136 194.731 83.7867 194.78 84.1713 194.924Z" fill="#10CFA8"/>
<path d="M111.907 207.327C111.907 215.193 105.849 220.211 98.5898 220.211C91.3783 220.211 85.3207 215.193 85.3207 207.327C85.3207 199.461 91.3783 194.635 98.5898 194.635C105.849 194.635 111.907 199.461 111.907 207.327ZM104.311 207.327C104.311 204.238 102.292 201.198 98.5898 201.198C94.8879 201.198 92.9648 204.238 92.9648 207.327C92.9648 210.415 94.936 213.552 98.6379 213.552C102.34 213.552 104.311 210.415 104.311 207.327Z" fill="#10CFA8"/>
<path d="M132.764 194.924L132.428 201.873C131.707 201.68 131.034 201.632 130.409 201.632C126.178 201.632 124.784 205.107 124.784 207.085V219.439H116.899V195.407H124.495V198.882H124.591C125.793 196.469 128.149 194.731 131.082 194.731C131.707 194.731 132.38 194.78 132.764 194.924Z" fill="#10CFA8"/>
<path d="M149.344 209.788V208.967H148.335C144.873 208.967 140.979 209.402 140.979 212.249C140.979 214.083 142.806 214.71 144.392 214.71C147.565 214.71 149.344 212.78 149.344 209.788ZM138.863 202.983L134.873 198.689C137.661 196.034 141.652 194.635 145.546 194.635C153.575 194.635 156.556 198.592 156.556 207.327V219.439H149.344V216.882H149.2C147.998 218.86 145.258 220.018 142.421 220.018C138.623 220.018 133.719 218.136 133.719 212.49C133.719 205.541 142.133 204.383 149.104 204.383V203.997C149.104 201.632 147.229 200.522 144.777 200.522C142.517 200.522 140.306 201.632 138.863 202.983Z" fill="#10CFA8"/>
<path d="M204.844 214.71C201.863 218.184 197.344 220.356 191.623 220.356C181.142 220.356 173.306 213.021 173.306 202.308C173.306 191.353 181.383 184.356 191.767 184.356C196.527 184.356 201.671 186.093 204.508 189.375L198.931 194.973C197.392 192.849 194.652 191.836 192.056 191.836C186.335 191.836 182.248 196.276 182.248 202.308C182.248 208.533 186.238 212.78 191.911 212.78C195.133 212.78 197.681 211.332 199.123 209.305L204.844 214.71Z" fill="#10CFA8"/>
<path d="M232.756 207.327C232.756 215.193 226.698 220.211 219.439 220.211C212.227 220.211 206.17 215.193 206.17 207.327C206.17 199.461 212.227 194.635 219.439 194.635C226.698 194.635 232.756 199.461 232.756 207.327ZM225.16 207.327C225.16 204.238 223.141 201.198 219.439 201.198C215.737 201.198 213.814 204.238 213.814 207.327C213.814 210.415 215.785 213.552 219.487 213.552C223.189 213.552 225.16 210.415 225.16 207.327Z" fill="#10CFA8"/>
<path d="M261.402 219.439H253.469V206.313C253.469 203.659 252.748 201.246 249.911 201.246C247.123 201.246 245.681 203.659 245.681 206.41V219.439H237.748V195.407H245.392V198.737H245.488C246.594 196.613 249.335 194.731 252.652 194.731C259.094 194.731 261.402 199.75 261.402 204.576V219.439Z" fill="#10CFA8"/>
<path d="M291.027 219.439H283.094V206.313C283.094 203.659 282.373 201.246 279.537 201.246C276.748 201.246 275.306 203.659 275.306 206.41V219.439H267.373V195.407H275.018V198.737H275.114C276.22 196.613 278.96 194.731 282.277 194.731C288.719 194.731 291.027 199.75 291.027 204.576V219.439Z" fill="#10CFA8"/>
<path d="M303.345 204.672H313.489C313.489 202.163 311.903 200.088 308.778 200.088C305.749 200.088 303.537 202.211 303.345 204.672ZM320.749 207.713C320.749 208.34 320.749 209.016 320.701 209.595H303.345C303.585 212.249 306.23 214.131 309.066 214.131C311.566 214.131 313.297 213.069 314.354 211.621L319.835 215.096C317.576 218.378 313.826 220.211 308.97 220.211C301.758 220.211 295.797 215.627 295.797 207.52C295.797 199.654 301.47 194.635 308.729 194.635C315.797 194.635 320.749 199.509 320.749 207.713Z" fill="#10CFA8"/>
<path d="M346.696 197.868L342.128 203.176C341.263 202.018 339.532 201.246 337.946 201.246C334.629 201.246 332.417 204.093 332.417 207.423C332.417 210.753 334.58 213.552 338.042 213.552C339.629 213.552 341.359 212.924 342.321 211.766L346.696 217.123C344.725 219.053 341.359 220.211 337.85 220.211C330.302 220.211 324.436 215.386 324.436 207.423C324.436 199.605 330.35 194.635 337.802 194.635C341.215 194.635 344.821 195.938 346.696 197.868Z" fill="#10CFA8"/>
<path d="M364 201.343H358.375V210.512C358.375 212.731 359.096 213.89 361.356 213.89C362.125 213.89 363.087 213.745 363.663 213.504L363.76 219.294C362.702 219.68 360.875 220.018 359.192 220.018C352.798 220.018 350.683 216.592 350.683 211.477V201.343H346.837V195.407H350.635V189.085H358.375V195.407H364V201.343Z" fill="#10CFA8"/>
<path d="M17.5681 236.583L16.5721 237.47C16.1679 236.805 15.4461 236.509 14.7099 236.509C13.6417 236.509 12.5302 237.027 12.5302 238.269C12.5302 239.23 13.0498 239.658 14.681 240.191C16.2689 240.708 17.7413 241.24 17.7413 243.296C17.7413 245.38 15.9947 246.356 14.1469 246.356C12.9632 246.356 11.6929 245.957 11 244.907L12.0394 244.035C12.4724 244.804 13.3385 245.203 14.2191 245.203C15.2585 245.203 16.4422 244.582 16.4422 243.384C16.4422 242.098 15.5905 241.876 13.7716 241.255C12.3281 240.767 11.231 240.117 11.231 238.372C11.231 236.361 12.9199 235.356 14.7099 235.356C15.8503 235.356 16.8175 235.681 17.5681 236.583Z" fill="#919191"/>
<path d="M28.7652 235.622V236.775H25.3873V246.09H24.1747V236.775H20.7968V235.622H28.7652Z" fill="#919191"/>
<path d="M29.8539 246.09L34.3578 235.622H35.4982L39.8432 246.09H38.4286L37.3892 243.517H32.2791L31.2253 246.09H29.8539ZM36.9273 242.364L34.9063 237.219H34.8774L32.7554 242.364H36.9273Z" fill="#919191"/>
<path d="M44.7063 246.09V241.581L40.8953 235.622H42.4399L45.3126 240.353L48.2718 235.622H49.7298L45.9189 241.581V246.09H44.7063Z" fill="#919191"/>
<path d="M67.4287 236.997L66.3749 237.781C65.7686 236.938 64.8014 236.509 63.8198 236.509C61.539 236.509 59.9222 238.564 59.9222 240.856C59.9222 243.281 61.5246 245.203 63.8198 245.203C65.0612 245.203 66.0573 244.685 66.7791 243.739L67.6885 244.523C66.7791 245.779 65.451 246.356 63.8198 246.356C60.8894 246.356 58.623 244.035 58.623 240.856C58.623 237.781 60.7884 235.356 63.8198 235.356C65.2056 235.356 66.5625 235.844 67.4287 236.997Z" fill="#919191"/>
<path d="M76.2935 246.356C73.1899 246.356 70.9524 244.02 70.9524 240.856C70.9524 237.692 73.1899 235.356 76.2935 235.356C79.3971 235.356 81.6346 237.692 81.6346 240.856C81.6346 244.02 79.3971 246.356 76.2935 246.356ZM76.2935 245.203C78.6898 245.203 80.3354 243.266 80.3354 240.856C80.3354 238.446 78.6898 236.509 76.2935 236.509C73.8972 236.509 72.2516 238.446 72.2516 240.856C72.2516 243.266 73.8972 245.203 76.2935 245.203Z" fill="#919191"/>
<path d="M85.7485 246.09V235.622H87.2786L93.1971 244.316H93.226V235.622H94.4386V246.09H92.9084L86.9899 237.396H86.961V246.09H85.7485Z" fill="#919191"/>
<path d="M99.1492 246.09V235.622H100.679L106.598 244.316H106.627V235.622H107.839V246.09H106.309L100.391 237.396H100.362V246.09H99.1492Z" fill="#919191"/>
<path d="M112.55 246.09V235.622H118.974V236.775H113.762V240.058H118.627V241.211H113.762V244.937H119.233V246.09H112.55Z" fill="#919191"/>
<path d="M131.486 236.997L130.432 237.781C129.826 236.938 128.859 236.509 127.877 236.509C125.596 236.509 123.979 238.564 123.979 240.856C123.979 243.281 125.582 245.203 127.877 245.203C129.118 245.203 130.115 244.685 130.836 243.739L131.746 244.523C130.836 245.779 129.508 246.356 127.877 246.356C124.947 246.356 122.68 244.035 122.68 240.856C122.68 237.781 124.846 235.356 127.877 235.356C129.263 235.356 130.62 235.844 131.486 236.997Z" fill="#919191"/>
<path d="M142.458 235.622V236.775H139.08V246.09H137.868V236.775H134.49V235.622H142.458Z" fill="#919191"/>
<path d="M146.056 246.09V235.622H152.48V236.775H147.268V240.058H152.133V241.211H147.268V244.937H152.739V246.09H146.056Z" fill="#919191"/>
<path d="M156.59 246.09V235.622H160.517C162.523 235.622 165.526 236.997 165.526 240.856C165.526 244.715 162.523 246.09 160.517 246.09H156.59ZM157.803 236.775V244.937H160.113C162.451 244.937 164.227 243.724 164.227 240.856C164.227 237.988 162.451 236.775 160.113 236.775H157.803Z" fill="#919191"/>
<path d="M174.642 246.09L179.146 235.622H180.287L184.632 246.09H183.217L182.178 243.517H177.068L176.014 246.09H174.642ZM181.716 242.364L179.695 237.219H179.666L177.544 242.364H181.716Z" fill="#919191"/>
<path d="M188.155 246.09V235.622H190.768C192.746 235.622 194.839 235.918 194.839 238.505C194.839 240.028 193.872 241.019 192.284 241.27L195.185 246.09H193.699L190.927 241.388H189.368V246.09H188.155ZM189.368 236.775V240.235H190.451C191.793 240.235 193.54 240.235 193.54 238.505C193.54 236.997 192.255 236.775 191.071 236.775H189.368Z" fill="#919191"/>
<path d="M203.895 246.356C200.791 246.356 198.554 244.02 198.554 240.856C198.554 237.692 200.791 235.356 203.895 235.356C206.998 235.356 209.236 237.692 209.236 240.856C209.236 244.02 206.998 246.356 203.895 246.356ZM203.895 245.203C206.291 245.203 207.937 243.266 207.937 240.856C207.937 238.446 206.291 236.509 203.895 236.509C201.498 236.509 199.853 238.446 199.853 240.856C199.853 243.266 201.498 245.203 203.895 245.203Z" fill="#919191"/>
<path d="M221.015 235.622V242.098C221.015 244.375 219.976 246.356 217.161 246.356C214.346 246.356 213.306 244.375 213.306 242.098V235.622H214.519V241.921C214.519 243.606 215.125 245.203 217.161 245.203C219.196 245.203 219.802 243.606 219.802 241.921V235.622H221.015Z" fill="#919191"/>
<path d="M225.679 246.09V235.622H227.209L233.128 244.316H233.157V235.622H234.369V246.09H232.839L226.921 237.396H226.892V246.09H225.679Z" fill="#919191"/>
<path d="M238.892 246.09V235.622H242.819C244.825 235.622 247.828 236.997 247.828 240.856C247.828 244.715 244.825 246.09 242.819 246.09H238.892ZM240.105 236.775V244.937H242.414C244.753 244.937 246.528 243.724 246.528 240.856C246.528 237.988 244.753 236.775 242.414 236.775H240.105Z" fill="#919191"/>
<path d="M264.985 235.622V236.775H261.607V246.09H260.394V236.775H257.016V235.622H264.985Z" fill="#919191"/>
<path d="M268.582 246.09V235.622H269.795V240.058H275.251V235.622H276.464V246.09H275.251V241.211H269.795V246.09H268.582Z" fill="#919191"/>
<path d="M281.165 246.09V235.622H287.589V236.775H282.378V240.058H287.243V241.211H282.378V244.937H287.849V246.09H281.165Z" fill="#919191"/>
<path d="M306.761 240.235V245.38C305.591 246.046 304.263 246.356 302.935 246.356C299.759 246.356 297.479 244.138 297.479 240.856C297.479 237.559 299.918 235.356 302.979 235.356C304.321 235.356 305.62 235.726 306.587 236.731L305.678 237.707C304.985 236.938 303.931 236.509 302.892 236.509C300.553 236.509 298.778 238.313 298.778 240.856C298.778 243.355 300.496 245.203 303.007 245.203C303.83 245.203 304.797 244.981 305.548 244.597V241.388H303.195V240.235H306.761Z" fill="#919191"/>
<path d="M311.471 246.09V235.622H312.684V244.937H317.361V246.09H311.471Z" fill="#919191"/>
<path d="M325.603 246.356C322.5 246.356 320.262 244.02 320.262 240.856C320.262 237.692 322.5 235.356 325.603 235.356C328.707 235.356 330.945 237.692 330.945 240.856C330.945 244.02 328.707 246.356 325.603 246.356ZM325.603 245.203C328 245.203 329.645 243.266 329.645 240.856C329.645 238.446 328 236.509 325.603 236.509C323.207 236.509 321.562 238.446 321.562 240.856C321.562 243.266 323.207 245.203 325.603 245.203Z" fill="#919191"/>
<path d="M335.058 246.09V235.622H338.177C339.865 235.622 341.569 236.273 341.569 238.195C341.569 239.407 340.876 240.22 339.779 240.56V240.59C341.093 240.708 342.089 241.788 342.089 243.163C342.089 245.469 339.995 246.09 338.104 246.09H335.058ZM336.271 236.775V240.058H337.946C339.086 240.058 340.27 239.806 340.27 238.357C340.27 237.071 339.173 236.775 338.075 236.775H336.271ZM336.271 241.211V244.937H338.321C339.505 244.937 340.789 244.449 340.789 243.118C340.789 241.654 339.577 241.211 338.35 241.211H336.271Z" fill="#919191"/>
<path d="M346.316 246.09V235.622H352.74V236.775H347.529V240.058H352.394V241.211H347.529V244.937H353V246.09H346.316Z" fill="#919191"/>
<defs>
<clipPath id="clip0_1_3">
<rect width="162.406" height="172.03" fill="white" transform="translate(101.282)"/>
</clipPath>
<clipPath id="clip1_1_3">
<rect width="158.497" height="90.8272" fill="white" transform="translate(117.222 81.2032)"/>
</clipPath>
</defs>
</svg>
