<svg width="17" height="20" viewBox="0 0 17 20" fill="none" xmlns="http://www.w3.org/2000/svg">
<path d="M9.80208 19.1663L9.57292 16.6455H8.65625C6.47153 16.6455 4.60764 15.874 3.06458 14.3309C1.52153 12.7879 0.75 10.924 0.75 8.73926C0.75 6.55454 1.52535 4.69065 3.07604 3.14759C4.62674 1.60454 6.50208 0.833008 8.70208 0.833008C9.78681 0.833008 10.7913 1.0278 11.7156 1.41738C12.6399 1.80697 13.4458 2.35315 14.1333 3.05592C14.8208 3.7587 15.3594 4.58752 15.749 5.54238C16.1385 6.49724 16.3333 7.53995 16.3333 8.67051C16.3333 9.67884 16.1844 10.6872 15.8865 11.6955C15.5885 12.7038 15.1569 13.6663 14.5917 14.583C14.0264 15.4997 13.3389 16.3476 12.5292 17.1268C11.7194 17.9059 10.8104 18.5858 9.80208 19.1663ZM10.9479 16.6913C12.2007 15.6372 13.1823 14.3959 13.8927 12.9674C14.6031 11.5389 14.9583 10.1066 14.9583 8.67051C14.9583 6.77606 14.3663 5.22537 13.1823 4.01842C11.9983 2.81148 10.5049 2.20801 8.70208 2.20801C6.86875 2.20801 5.31424 2.84585 4.03854 4.12155C2.76285 5.39724 2.125 6.93648 2.125 8.73926C2.125 10.542 2.76285 12.0813 4.03854 13.357C5.31424 14.6327 6.85347 15.2705 8.65625 15.2705H10.9479V16.6913ZM8.70208 14.0559C8.94653 14.0559 9.15278 13.9719 9.32083 13.8038C9.48889 13.6358 9.57292 13.4295 9.57292 13.1851C9.57292 12.9406 9.48889 12.7344 9.32083 12.5663C9.15278 12.3983 8.94653 12.3143 8.70208 12.3143C8.45764 12.3143 8.25139 12.3983 8.08333 12.5663C7.91528 12.7344 7.83125 12.9406 7.83125 13.1851C7.83125 13.4295 7.91528 13.6358 8.08333 13.8038C8.25139 13.9719 8.45764 14.0559 8.70208 14.0559ZM8.08333 10.9393H9.22917C9.22917 10.5573 9.2941 10.2403 9.42396 9.98822C9.55382 9.73613 9.825 9.40384 10.2375 8.99134C10.65 8.57884 10.9403 8.20072 11.1083 7.85697C11.2764 7.51322 11.3604 7.14273 11.3604 6.74551C11.3604 6.05801 11.1274 5.49273 10.6615 5.04967C10.1955 4.60662 9.57292 4.38509 8.79375 4.38509C8.15208 4.38509 7.57917 4.55315 7.075 4.88926C6.57083 5.22537 6.19653 5.6837 5.95208 6.26426L7.00625 6.69967C7.1743 6.30245 7.40729 6.00836 7.70521 5.81738C8.00312 5.62641 8.34306 5.53092 8.725 5.53092C9.18333 5.53092 9.54236 5.64169 9.80208 5.86322C10.0618 6.08474 10.1917 6.37884 10.1917 6.74551C10.1917 7.03579 10.1076 7.32988 9.93958 7.6278C9.77153 7.92572 9.47361 8.2962 9.04583 8.73926C8.63333 9.16704 8.36979 9.51079 8.25521 9.77051C8.14062 10.0302 8.08333 10.4198 8.08333 10.9393Z" fill="#10CFA8"/>
</svg>
