<svg width="22" height="22" viewBox="0 0 22 22" fill="none" xmlns="http://www.w3.org/2000/svg">
<path d="M7.31074 16.2705H14.6899V14.8955H7.31074V16.2705ZM7.31074 12.3747H14.6899V10.9997H7.31074V12.3747ZM5.04199 20.1663C4.67533 20.1663 4.35449 20.0288 4.07949 19.7538C3.80449 19.4788 3.66699 19.158 3.66699 18.7913V3.20801C3.66699 2.84134 3.80449 2.52051 4.07949 2.24551C4.35449 1.97051 4.67533 1.83301 5.04199 1.83301H13.3149L18.3337 6.85176V18.7913C18.3337 19.158 18.1962 19.4788 17.9212 19.7538C17.6462 20.0288 17.3253 20.1663 16.9587 20.1663H5.04199ZM12.6274 7.47051V3.20801H5.04199V18.7913H16.9587V7.47051H12.6274Z" fill="#10CFA8"/>
</svg>
