<svg width="221" height="185" viewBox="0 0 221 185" fill="none" xmlns="http://www.w3.org/2000/svg">
<g clip-path="url(#clip0_99_2922)">
<path d="M181.892 89.3536C181.761 88.5175 180.976 87.945 180.137 88.0755C179.299 88.2061 178.726 88.9921 178.857 89.8282C179.078 91.257 179.357 95.7316 177.811 97.5319C177.477 97.9212 177.072 98.1547 176.564 98.2476L176.705 89.7253C176.725 88.4873 175.727 87.4729 174.485 87.4729C173.238 87.4729 172.235 88.4999 172.265 89.7454L172.667 105.919C172.134 105.833 171.714 105.6 171.367 105.196C169.821 103.395 170.103 98.9205 170.321 97.4918C170.452 96.6556 169.879 95.8697 169.042 95.7391C168.202 95.6085 167.417 96.181 167.287 97.0172C167.176 97.7203 166.288 103.988 169.031 107.187C169.974 108.287 171.252 108.912 172.742 109.007L172.916 116.048H176.267L176.511 101.339C177.969 101.226 179.216 100.605 180.144 99.5232C182.89 96.3242 182.002 90.0592 181.892 89.3536Z" fill="#BDBDBD"/>
<path d="M38.8219 103.066C38.7389 102.534 38.2386 102.167 37.7031 102.253C37.1701 102.335 36.803 102.835 36.8885 103.37C37.0293 104.281 37.2078 107.134 36.2222 108.281C36.0085 108.53 35.7521 108.678 35.4277 108.738L35.5182 103.305C35.5308 102.516 34.8947 101.868 34.1027 101.868C33.3083 101.868 32.6697 102.524 32.6873 103.317L32.9437 113.627C32.6043 113.572 32.3353 113.424 32.1165 113.168C31.131 112.02 31.3095 109.168 31.4503 108.256C31.5332 107.724 31.1687 107.222 30.6357 107.139C30.1001 107.056 29.5998 107.42 29.5169 107.953C29.4465 108.402 28.8808 112.394 30.6281 114.436C31.229 115.136 32.0436 115.536 32.994 115.596L33.1046 120.083H35.2417L35.3976 110.707C36.3253 110.634 37.1223 110.24 37.7131 109.55C39.458 107.508 38.8923 103.513 38.8219 103.066Z" fill="#BDBDBD"/>
<path d="M110.499 185C171.526 185 220.997 167.508 220.997 145.931C220.997 124.354 171.526 106.863 110.499 106.863C49.472 106.863 0 124.354 0 145.931C0 167.508 49.472 185 110.499 185Z" fill="url(#paint0_linear_99_2922)"/>
<path d="M128.138 98.574C128.138 98.574 128.073 102.333 128.136 102.71C128.199 103.086 126.663 105.291 126.034 105.193C125.406 105.095 124.148 104.887 123.967 104.678C123.786 104.47 123.867 103.975 123.93 103.526C123.995 103.074 124.465 98.9807 124.465 98.7723C124.465 98.5639 127.44 98.0015 128.138 98.574Z" fill="#FFD3BC"/>
<path d="M125.701 102.494C124.914 102.918 124.474 104.209 124.361 104.224C124.251 104.239 124.042 104.209 124.042 104.081C124.042 103.953 124.075 103.523 123.931 103.523C123.788 103.523 123.627 104.224 123.597 105.246C123.564 106.268 123.202 108.701 123.597 109.01C123.846 109.203 126.121 110.398 126.184 110.556C126.247 110.717 126.136 111.832 126.327 112.008C126.518 112.184 126.966 112.613 127.318 112.63C127.67 112.646 129.696 112.854 130.657 112.63C131.615 112.407 132.829 111.945 132.862 111.817C132.894 111.689 132.623 108.977 132.319 108.643C132.014 108.309 129.827 105.308 129.651 105.037C129.475 104.766 129.347 104.113 129.347 103.729C129.347 103.347 129 102.511 128.354 102.31C127.68 102.102 126.292 102.175 125.701 102.494Z" fill="url(#paint1_linear_99_2922)"/>
<path d="M105.194 100.749C105.194 100.749 105.194 102.938 105.131 103.315C105.068 103.691 106.604 105.896 107.233 105.798C107.861 105.7 109.118 105.492 109.299 105.283C109.48 105.075 109.4 104.58 109.337 104.131C109.272 103.679 108.867 101.155 108.867 100.947C108.867 100.734 105.893 100.176 105.194 100.749Z" fill="#FFD3BC"/>
<path d="M107.218 52.4345C106.328 55.6637 104.646 66.7296 104.646 72.1082C104.646 77.4867 104.108 91.1993 104.108 93.2809C104.108 95.365 103.884 100.535 104.422 100.804C104.96 101.072 106.22 101.881 107.927 101.612C109.634 101.344 110.084 100.266 110.129 99.2796C110.174 98.2928 110.579 91.2018 110.984 88.4648C111.389 85.7278 112.827 80.4472 113.77 77.0523C114.713 73.6549 116.915 66.8275 117.498 66.8527C118.082 66.8778 121.722 81.8383 122.024 82.687C122.328 83.5357 122.904 95.5809 122.941 96.5929C122.979 97.6048 122.941 98.5766 123.578 98.9884C124.214 99.4002 126.165 100.412 127.175 100.485C128.189 100.56 128.862 98.9507 129.048 98.4636C129.237 97.9764 129.569 81.8634 129.448 77.444C129.328 73.0247 129.68 64.7811 129.473 62.0943C129.27 59.4076 128.611 53.6473 128.191 52.4345C127.776 51.2217 107.218 52.4345 107.218 52.4345Z" fill="#140029"/>
<path d="M100.935 14.8877C101.785 13.9461 105.745 9.48654 106.531 9.32835C107.318 9.17016 109.232 8.82615 109.657 8.38673C110.084 7.9473 111.887 2.29003 111.173 1.26052C110.459 0.231016 107.701 0.522291 106.866 2.27497C106.031 4.02764 106.071 4.94415 104.694 6.15445C103.316 7.36475 97.3094 12.2687 96.7513 12.7634C96.1931 13.2581 97.3019 15.6661 98.1793 16.0829C99.0593 16.4997 100.935 14.8877 100.935 14.8877Z" fill="url(#paint2_linear_99_2922)"/>
<path d="M111.884 16.246C109.86 16.6703 106.496 17.0294 105.387 17.3885C104.276 17.7475 99.9011 19.2793 99.9338 18.6264C99.9665 17.9735 101.958 15.106 101.598 14.8122C101.239 14.5184 99.084 14.1593 98.7245 13.7023C98.365 13.2453 97.8747 12.1706 97.3869 12.3012C96.8967 12.4318 91.2196 17.7124 91.6068 19.7363C92.522 24.5046 105.943 27.9773 106.249 30.0564C106.556 32.1355 105.209 52.0728 105.943 52.8061C106.677 53.5393 114.453 56.3541 118.373 56.5977C122.293 56.8412 129.166 55.4777 129.541 54.4482C129.916 53.4187 127.628 33.6095 127.894 33.6095C128.161 33.6095 128.234 39.8443 131.22 41.4564C133.192 42.521 135.902 41.4237 136.42 40.8361C136.938 40.2486 134.567 31.9598 133.496 29.1625C132.422 26.3678 131.396 20.59 128.97 18.541C126.544 16.492 123.12 16.8386 121.941 16.359C120.761 15.8769 116.807 16.2234 115.808 16.1179C114.813 16.0125 111.884 16.246 111.884 16.246Z" fill="url(#paint3_linear_99_2922)"/>
<path d="M137.166 37.0899C137.166 37.0899 133.677 38.1445 133.405 38.5061C133.134 38.8676 132.648 40.319 133.405 40.9241C134.162 41.5293 134.992 41.9813 135.889 41.2832C136.787 40.5852 137.604 39.6486 138.122 39.528C138.64 39.41 140.191 39.631 140.842 39.3774C141.493 39.1213 142.728 34.1922 142.23 33.8934C141.73 33.5946 137.166 37.0899 137.166 37.0899Z" fill="url(#paint4_linear_99_2922)"/>
<path d="M111.899 15.5806C110.772 15.3471 108.598 13.2228 108.399 11.0659C108.205 8.96415 106.657 3.05578 112.045 0.838575C117.101 -1.24053 122.302 0.898839 123.052 3.46256C123.751 5.85805 117.815 5.96602 115.64 7.52535C113.465 9.08468 113.317 10.1192 112.774 9.87313C112.228 9.62706 111.899 15.5806 111.899 15.5806Z" fill="#E64D4E"/>
<path d="M111.808 11.3698C111.738 12.3315 111.494 16.9894 111.899 17.6774C112.271 18.3077 112.929 20.1382 115.512 20.0578C118.096 19.9775 119.771 17.3962 119.914 17.0948C120.055 16.7935 119.753 13.0622 119.753 12.4369C119.753 11.8117 116.281 10.3403 114.888 10.3804C113.493 10.4181 111.876 10.4658 111.808 11.3698Z" fill="url(#paint5_linear_99_2922)"/>
<path d="M112.045 11.3847C112.337 11.3772 111.992 13.1524 112.52 13.7325C113.048 14.3125 115.346 17.3383 117.777 17.042C119.879 16.7858 119.577 14.9779 119.882 13.4864C120.156 12.133 121.031 12.0175 121.337 8.4845C121.455 7.11852 122.104 4.97664 120.915 4.58242C119.726 4.18568 115.266 3.13106 114.157 4.58242C113.048 6.03377 112.942 9.51401 112.362 9.06454C111.781 8.61507 110.567 6.428 109.852 7.61319C109.141 8.80089 110.489 11.4299 112.045 11.3847Z" fill="#F2DAD4"/>
<path d="M130.818 29.4487L123.741 38.3854C123.373 38.8499 123.71 39.5329 124.304 39.5228L137.385 39.3019C137.601 39.2994 137.805 39.1939 137.936 39.0206L144.621 30.0991C144.938 29.6772 144.633 29.0746 144.106 29.0796L131.364 29.1851C131.15 29.1826 130.949 29.2805 130.818 29.4487Z" fill="url(#paint6_linear_99_2922)"/>
<path d="M142.006 33.047C141.317 33.1173 140.316 33.504 140.316 33.8631C140.316 34.2222 141.118 34.3201 141.34 34.3553C141.561 34.3879 141.853 34.4582 141.77 34.5687C141.687 34.6792 141.521 35.2316 141.078 35.1362C140.636 35.0383 138.697 35.0106 138.323 35.0106C137.948 35.0106 137.506 35.2743 137.478 35.5505C137.45 35.8267 137.367 35.8819 137.146 35.897C136.925 35.9121 136.522 36.118 136.522 36.4771C136.522 36.8361 137.412 37.16 137.412 37.2881C137.412 37.4162 139.157 38.4783 139.499 38.6767C139.841 38.8751 140.48 39.3773 140.839 39.3773C141.199 39.3773 141.802 39.0358 141.848 38.5411C141.893 38.0464 142.604 37.6874 142.612 37.4438C142.622 37.2002 142.388 37.0219 142.413 36.8688C142.441 36.7156 143.062 36.4997 143.062 36.113C143.062 35.7263 142.818 35.2065 142.783 35.0433C142.748 34.8826 142.602 34.531 142.748 34.4858C142.891 34.4406 143.396 33.9736 143.306 33.5417C143.215 33.1123 142.325 33.0144 142.006 33.047Z" fill="#FFD3BC"/>
<path d="M107.564 103.099C108.351 103.523 108.791 104.814 108.905 104.829C109.015 104.844 109.224 104.814 109.224 104.686C109.224 104.558 109.191 104.128 109.334 104.128C109.478 104.128 109.639 104.829 109.669 105.851C109.702 106.873 110.064 109.306 109.669 109.615C109.42 109.808 107.145 111.003 107.082 111.162C107.019 111.322 107.13 112.437 106.938 112.613C106.747 112.789 106.3 113.218 105.948 113.236C105.596 113.251 103.569 113.459 102.609 113.236C101.651 113.012 100.437 112.55 100.404 112.422C100.371 112.294 100.643 109.582 100.947 109.248C101.251 108.914 103.439 105.914 103.615 105.642C103.791 105.371 103.919 104.718 103.919 104.334C103.919 103.953 104.266 103.116 104.912 102.916C105.586 102.707 106.974 102.78 107.564 103.099Z" fill="url(#paint7_linear_99_2922)"/>
</g>
<defs>
<linearGradient id="paint0_linear_99_2922" x1="110.5" y1="89.1544" x2="110.5" y2="150.504" gradientUnits="userSpaceOnUse">
<stop stop-color="#DCE2EB"/>
<stop offset="0.4764" stop-color="#E1E6EC"/>
<stop offset="1" stop-color="#F3F8FF"/>
</linearGradient>
<linearGradient id="paint1_linear_99_2922" x1="129.896" y1="106.534" x2="124.183" y2="110.871" gradientUnits="userSpaceOnUse">
<stop stop-color="#64F4D7"/>
<stop offset="0.9844" stop-color="#08C09B"/>
</linearGradient>
<linearGradient id="paint2_linear_99_2922" x1="113.61" y1="9.46201" x2="102.794" y2="8.25357" gradientUnits="userSpaceOnUse">
<stop stop-color="#F2BFAD"/>
<stop offset="1" stop-color="#F2DAD4"/>
</linearGradient>
<linearGradient id="paint3_linear_99_2922" x1="100.671" y1="22.9631" x2="137.499" y2="50.9158" gradientUnits="userSpaceOnUse">
<stop stop-color="#85FFE6"/>
<stop offset="0.9844" stop-color="#08C09B"/>
</linearGradient>
<linearGradient id="paint4_linear_99_2922" x1="137.764" y1="38.6971" x2="138.313" y2="48.0144" gradientUnits="userSpaceOnUse">
<stop stop-color="#F2BFAD"/>
<stop offset="0.7043" stop-color="#F2DAD4"/>
</linearGradient>
<linearGradient id="paint5_linear_99_2922" x1="115.012" y1="13.3394" x2="118.581" y2="20.8016" gradientUnits="userSpaceOnUse">
<stop stop-color="#F2BFAD"/>
<stop offset="1" stop-color="#F2DAD4"/>
</linearGradient>
<linearGradient id="paint6_linear_99_2922" x1="131.765" y1="29.8592" x2="137.978" y2="41.3049" gradientUnits="userSpaceOnUse">
<stop stop-color="#F6DBDB"/>
<stop offset="1" stop-color="#EB9A99"/>
</linearGradient>
<linearGradient id="paint7_linear_99_2922" x1="103.37" y1="107.138" x2="109.083" y2="111.475" gradientUnits="userSpaceOnUse">
<stop stop-color="#5DF3D5"/>
<stop offset="0.9844" stop-color="#08C09B"/>
</linearGradient>
<clipPath id="clip0_99_2922">
<rect width="221" height="185" fill="white"/>
</clipPath>
</defs>
</svg>
