<svg width="20" height="20" viewBox="0 0 20 20" fill="none" xmlns="http://www.w3.org/2000/svg">
<path d="M9.43783 14.1667H10.6878V9.16675H9.43783V14.1667ZM9.99995 7.62508C10.1946 7.62508 10.358 7.56119 10.4899 7.43341C10.6219 7.30564 10.6878 7.1473 10.6878 6.95841C10.6878 6.75772 10.622 6.58949 10.4903 6.45373C10.3586 6.31796 10.1954 6.25008 10.0007 6.25008C9.80601 6.25008 9.64269 6.31796 9.51074 6.45373C9.3788 6.58949 9.31283 6.75772 9.31283 6.95841C9.31283 7.1473 9.37867 7.30564 9.51037 7.43341C9.64208 7.56119 9.80527 7.62508 9.99995 7.62508ZM10.0059 18.3334C8.85678 18.3334 7.77692 18.1147 6.76628 17.6772C5.75564 17.2397 4.87185 16.6424 4.11491 15.8855C3.35796 15.1286 2.76074 14.2442 2.32324 13.2326C1.88574 12.2209 1.66699 11.1399 1.66699 9.98966C1.66699 8.8394 1.88574 7.75844 2.32324 6.74677C2.76074 5.73509 3.35796 4.85425 4.11491 4.10425C4.87185 3.35425 5.75617 2.7605 6.76785 2.323C7.77951 1.8855 8.86048 1.66675 10.0107 1.66675C11.161 1.66675 12.242 1.8855 13.2536 2.323C14.2653 2.7605 15.1462 3.35425 15.8962 4.10425C16.6462 4.85425 17.2399 5.73619 17.6774 6.75008C18.1149 7.76397 18.3337 8.84546 18.3337 9.99454C18.3337 11.1436 18.1149 12.2235 17.6774 13.2341C17.2399 14.2448 16.6462 15.1273 15.8962 15.8817C15.1462 16.6361 14.2642 17.2333 13.2503 17.6733C12.2364 18.1134 11.155 18.3334 10.0059 18.3334ZM10.0107 17.0834C11.976 17.0834 13.6462 16.3924 15.0212 15.0105C16.3962 13.6286 17.0837 11.9549 17.0837 9.98966C17.0837 8.02439 16.3975 6.35425 15.0251 4.97925C13.6527 3.60425 11.9778 2.91675 10.0003 2.91675C8.04199 2.91675 6.37185 3.60294 4.98991 4.97533C3.60796 6.34773 2.91699 8.02265 2.91699 10.0001C2.91699 11.9584 3.60796 13.6286 4.98991 15.0105C6.37185 16.3924 8.04546 17.0834 10.0107 17.0834Z" fill="#10CFA8"/>
</svg>
