<svg width="28" height="28" viewBox="0 0 28 28" fill="none" xmlns="http://www.w3.org/2000/svg">
<circle cx="14" cy="14" r="14" fill="#10CFA8" fill-opacity="0.15"/>
<path d="M13.9997 20.6663C13.0663 20.6663 12.1941 20.4913 11.383 20.1413C10.5719 19.7913 9.86634 19.3163 9.26634 18.7163C8.66634 18.1163 8.19412 17.408 7.84967 16.5913C7.50523 15.7747 7.33301 14.8997 7.33301 13.9663C7.33301 13.033 7.50523 12.1636 7.84967 11.358C8.19412 10.5525 8.66634 9.84967 9.26634 9.24967C9.86634 8.64967 10.5719 8.18023 11.383 7.84134C12.1941 7.50245 13.0663 7.33301 13.9997 7.33301C14.933 7.33301 15.8052 7.50245 16.6163 7.84134C17.4275 8.18023 18.133 8.64967 18.733 9.24967C19.333 9.84967 19.8052 10.5525 20.1497 11.358C20.4941 12.1636 20.6663 13.033 20.6663 13.9663C20.6663 14.8997 20.4941 15.7747 20.1497 16.5913C19.8052 17.408 19.333 18.1163 18.733 18.7163C18.133 19.3163 17.4275 19.7913 16.6163 20.1413C15.8052 20.4913 14.933 20.6663 13.9997 20.6663ZM13.9997 19.6997C14.3886 19.2997 14.7136 18.8413 14.9747 18.3247C15.2358 17.808 15.4497 17.1941 15.6163 16.483H12.3997C12.5552 17.1497 12.7636 17.7497 13.0247 18.283C13.2858 18.8163 13.6108 19.2886 13.9997 19.6997ZM12.583 19.4997C12.3052 19.0775 12.0663 18.6219 11.8663 18.133C11.6663 17.6441 11.4997 17.0941 11.3663 16.483H8.86634C9.28856 17.2719 9.77745 17.8913 10.333 18.3413C10.8886 18.7913 11.6386 19.1775 12.583 19.4997ZM15.433 19.483C16.233 19.2275 16.9525 18.8441 17.5913 18.333C18.2302 17.8219 18.7441 17.2052 19.133 16.483H16.6497C16.5052 17.083 16.3358 17.6275 16.1413 18.1163C15.9469 18.6052 15.7108 19.0608 15.433 19.483ZM8.53301 15.483H11.183C11.1497 15.183 11.1302 14.9136 11.1247 14.6747C11.1191 14.4358 11.1163 14.1997 11.1163 13.9663C11.1163 13.6886 11.1219 13.4413 11.133 13.2247C11.1441 13.008 11.1663 12.7663 11.1997 12.4997H8.53301C8.45523 12.7663 8.40245 13.0052 8.37467 13.2163C8.3469 13.4275 8.33301 13.6775 8.33301 13.9663C8.33301 14.2552 8.3469 14.5136 8.37467 14.7413C8.40245 14.9691 8.45523 15.2163 8.53301 15.483ZM12.2163 15.483H15.7997C15.8441 15.1386 15.8719 14.858 15.883 14.6413C15.8941 14.4247 15.8997 14.1997 15.8997 13.9663C15.8997 13.7441 15.8941 13.5302 15.883 13.3247C15.8719 13.1191 15.8441 12.8441 15.7997 12.4997H12.2163C12.1719 12.8441 12.1441 13.1191 12.133 13.3247C12.1219 13.5302 12.1163 13.7441 12.1163 13.9663C12.1163 14.1997 12.1219 14.4247 12.133 14.6413C12.1441 14.858 12.1719 15.1386 12.2163 15.483ZM16.7997 15.483H19.4663C19.5441 15.2163 19.5969 14.9691 19.6247 14.7413C19.6525 14.5136 19.6663 14.2552 19.6663 13.9663C19.6663 13.6775 19.6525 13.4275 19.6247 13.2163C19.5969 13.0052 19.5441 12.7663 19.4663 12.4997H16.8163C16.8497 12.8886 16.8719 13.1858 16.883 13.3913C16.8941 13.5969 16.8997 13.7886 16.8997 13.9663C16.8997 14.2108 16.8913 14.4413 16.8747 14.658C16.858 14.8747 16.833 15.1497 16.7997 15.483ZM16.633 11.4997H19.133C18.7663 10.733 18.2636 10.0941 17.6247 9.58301C16.9858 9.0719 16.2497 8.71079 15.4163 8.49967C15.6941 8.91079 15.9302 9.35523 16.1247 9.83301C16.3191 10.3108 16.4886 10.8663 16.633 11.4997ZM12.3997 11.4997H15.633C15.5108 10.9108 15.3052 10.3413 15.0163 9.79134C14.7275 9.24134 14.3886 8.75523 13.9997 8.33301C13.6441 8.63301 13.3441 9.02745 13.0997 9.51634C12.8552 10.0052 12.6219 10.6663 12.3997 11.4997ZM8.86634 11.4997H11.383C11.5052 10.8997 11.6608 10.3636 11.8497 9.89134C12.0386 9.41912 12.2775 8.96079 12.5663 8.51634C11.733 8.72745 11.0052 9.08301 10.383 9.58301C9.76079 10.083 9.25523 10.7219 8.86634 11.4997Z" fill="#10CFA8"/>
</svg>
