<svg width="19" height="25" viewBox="0 0 19 25" fill="none" xmlns="http://www.w3.org/2000/svg">
<path d="M9.55866 18.3916L14.1087 13.8416L12.8545 12.5874L10.4337 15.0083V9.34992H8.68366V15.0083L6.26283 12.5874L5.00866 13.8416L9.55866 18.3916ZM1.91699 24.1666C1.45033 24.1666 1.04199 23.9916 0.691992 23.6416C0.341992 23.2916 0.166992 22.8833 0.166992 22.4166V7.80409L7.13783 0.833252H17.0837C17.5503 0.833252 17.9587 1.00825 18.3087 1.35825C18.6587 1.70825 18.8337 2.11659 18.8337 2.58325V22.4166C18.8337 22.8833 18.6587 23.2916 18.3087 23.6416C17.9587 23.9916 17.5503 24.1666 17.0837 24.1666H1.91699Z" fill="#10CFA8"/>
</svg>
