<svg width="360" height="149" viewBox="0 0 360 149" fill="none" xmlns="http://www.w3.org/2000/svg">
<g clip-path="url(#clip0_13_802)">
<path d="M95.9561 48.5825H75.6572V129.537H95.9561V48.5825Z" fill="#9EFAE7"/>
<path d="M92.6392 42.7778H78.9727V76.8007H92.6392V42.7778Z" fill="#9EFAE7"/>
<path d="M89.5946 39.0977H82.0127V57.9668H89.5946V39.0977Z" fill="#9EFAE7"/>
<path d="M88.3889 48.794H83.2188V35.9309H85.0828H86.9318H88.3889V48.794Z" fill="#9EFAE7"/>
<path d="M85.4651 43.1956H84.9023V30.3325H85.1083H85.3043H85.4651V43.1956Z" fill="#9EFAE7"/>
<path d="M86.7063 38.7452H86.1436V25.8872H86.3445H86.5455H86.7063V38.7452Z" fill="#9EFAE7"/>
<path d="M96.4934 48.3762H75.1143V49.2371H96.4934V48.3762Z" fill="#9EFAE7"/>
<path d="M93.1321 42.365H78.4707V43.1957H93.1321V42.365Z" fill="#9EFAE7"/>
<path d="M89.9111 38.7451H81.46V39.3795H89.9111V38.7451Z" fill="#9EFAE7"/>
<path opacity="0.29" d="M80.8626 44.1572H80.2295V47.7216H80.8626V44.1572Z" fill="#9EFAE7"/>
<path opacity="0.29" d="M82.6204 44.1572H81.9873V47.7216H82.6204V44.1572Z" fill="#9EFAE7"/>
<path opacity="0.29" d="M84.3743 44.1572H83.7412V47.7216H84.3743V44.1572Z" fill="#9EFAE7"/>
<path opacity="0.29" d="M86.1331 44.1572H85.5V47.7216H86.1331V44.1572Z" fill="#9EFAE7"/>
<path opacity="0.29" d="M87.8919 44.1572H87.2588V47.7216H87.8919V44.1572Z" fill="#9EFAE7"/>
<path opacity="0.29" d="M89.6497 44.1572H89.0166V47.7216H89.6497V44.1572Z" fill="#9EFAE7"/>
<path opacity="0.29" d="M91.4085 44.1572H90.7754V47.7216H91.4085V44.1572Z" fill="#9EFAE7"/>
<path d="M78.973 51.8096H77.4355V56.0385H78.973V51.8096Z" fill="#9EFAE7"/>
<path opacity="0.29" d="M82.0131 51.8096H80.4756V56.0385H82.0131V51.8096Z" fill="#9EFAE7"/>
<path d="M85.0531 51.8096H83.5156V56.0385H85.0531V51.8096Z" fill="#9EFAE7"/>
<path d="M88.0922 51.8096H86.5547V56.0385H88.0922V51.8096Z" fill="#9EFAE7"/>
<path d="M91.1322 51.8096H89.5947V56.0385H91.1322V51.8096Z" fill="#9EFAE7"/>
<path d="M94.1723 51.8096H92.6348V56.0385H94.1723V51.8096Z" fill="#9EFAE7"/>
<path d="M78.973 58.4048H77.4355V62.6337H78.973V58.4048Z" fill="#9EFAE7"/>
<path d="M82.0131 58.4048H80.4756V62.6337H82.0131V58.4048Z" fill="#9EFAE7"/>
<path d="M85.0531 58.4048H83.5156V62.6337H85.0531V58.4048Z" fill="#9EFAE7"/>
<path opacity="0.29" d="M88.0922 58.4048H86.5547V62.6337H88.0922V58.4048Z" fill="#9EFAE7"/>
<path d="M91.1322 58.4048H89.5947V62.6337H91.1322V58.4048Z" fill="#9EFAE7"/>
<path d="M94.1723 58.4048H92.6348V62.6337H94.1723V58.4048Z" fill="#9EFAE7"/>
<path d="M78.973 64.9949H77.4355V69.2238H78.973V64.9949Z" fill="#9EFAE7"/>
<path d="M82.0131 64.9949H80.4756V69.2238H82.0131V64.9949Z" fill="#9EFAE7"/>
<path d="M85.0531 64.9949H83.5156V69.2238H85.0531V64.9949Z" fill="#9EFAE7"/>
<path d="M88.0922 64.9949H86.5547V69.2238H88.0922V64.9949Z" fill="#9EFAE7"/>
<path opacity="0.29" d="M91.1322 64.9949H89.5947V69.2238H91.1322V64.9949Z" fill="#9EFAE7"/>
<path opacity="0.29" d="M94.1723 64.9949H92.6348V69.2238H94.1723V64.9949Z" fill="#9EFAE7"/>
<path opacity="0.29" d="M78.973 71.585H77.4355V75.8139H78.973V71.585Z" fill="#9EFAE7"/>
<path d="M82.0131 71.585H80.4756V75.8139H82.0131V71.585Z" fill="#9EFAE7"/>
<path d="M85.0531 71.585H83.5156V75.8139H85.0531V71.585Z" fill="#9EFAE7"/>
<path d="M88.0922 71.585H86.5547V75.8139H88.0922V71.585Z" fill="#9EFAE7"/>
<path d="M91.1322 71.585H89.5947V75.8139H91.1322V71.585Z" fill="#9EFAE7"/>
<path d="M94.1723 71.585H92.6348V75.8139H94.1723V71.585Z" fill="#9EFAE7"/>
<path d="M78.973 78.1802H77.4355V82.4091H78.973V78.1802Z" fill="#9EFAE7"/>
<path opacity="0.29" d="M82.0131 78.1802H80.4756V82.4091H82.0131V78.1802Z" fill="#9EFAE7"/>
<path d="M85.0531 78.1802H83.5156V82.4091H85.0531V78.1802Z" fill="#9EFAE7"/>
<path opacity="0.29" d="M88.0922 78.1802H86.5547V82.4091H88.0922V78.1802Z" fill="#9EFAE7"/>
<path d="M91.1322 78.1802H89.5947V82.4091H91.1322V78.1802Z" fill="#9EFAE7"/>
<path d="M94.1723 78.1802H92.6348V82.4091H94.1723V78.1802Z" fill="#9EFAE7"/>
<path d="M78.973 84.7703H77.4355V88.9992H78.973V84.7703Z" fill="#9EFAE7"/>
<path d="M82.0131 84.7703H80.4756V88.9992H82.0131V84.7703Z" fill="#9EFAE7"/>
<path d="M85.0531 84.7703H83.5156V88.9992H85.0531V84.7703Z" fill="#9EFAE7"/>
<path d="M88.0922 84.7703H86.5547V88.9992H88.0922V84.7703Z" fill="#9EFAE7"/>
<path d="M91.1322 84.7703H89.5947V88.9992H91.1322V84.7703Z" fill="#9EFAE7"/>
<path opacity="0.29" d="M94.1723 84.7703H92.6348V88.9992H94.1723V84.7703Z" fill="#9EFAE7"/>
<path d="M78.973 91.3655H77.4355V95.5944H78.973V91.3655Z" fill="#9EFAE7"/>
<path opacity="0.29" d="M82.0131 91.3655H80.4756V95.5944H82.0131V91.3655Z" fill="#9EFAE7"/>
<path opacity="0.29" d="M85.0531 91.3655H83.5156V95.5944H85.0531V91.3655Z" fill="#9EFAE7"/>
<path d="M88.0922 91.3655H86.5547V95.5944H88.0922V91.3655Z" fill="#9EFAE7"/>
<path d="M91.1322 91.3655H89.5947V95.5944H91.1322V91.3655Z" fill="#9EFAE7"/>
<path d="M94.1723 91.3655H92.6348V95.5944H94.1723V91.3655Z" fill="#9EFAE7"/>
<path d="M78.973 97.9556H77.4355V102.185H78.973V97.9556Z" fill="#9EFAE7"/>
<path d="M82.0131 97.9556H80.4756V102.185H82.0131V97.9556Z" fill="#9EFAE7"/>
<path d="M85.0531 97.9556H83.5156V102.185H85.0531V97.9556Z" fill="#9EFAE7"/>
<path d="M88.0922 97.9556H86.5547V102.185H88.0922V97.9556Z" fill="#9EFAE7"/>
<path opacity="0.29" d="M91.1322 97.9556H89.5947V102.185H91.1322V97.9556Z" fill="#9EFAE7"/>
<path d="M94.1723 97.9556H92.6348V102.185H94.1723V97.9556Z" fill="#9EFAE7"/>
<path d="M78.973 104.551H77.4355V108.78H78.973V104.551Z" fill="#9EFAE7"/>
<path opacity="0.29" d="M82.0131 104.551H80.4756V108.78H82.0131V104.551Z" fill="#9EFAE7"/>
<path d="M85.0531 104.551H83.5156V108.78H85.0531V104.551Z" fill="#9EFAE7"/>
<path d="M88.0922 104.551H86.5547V108.78H88.0922V104.551Z" fill="#9EFAE7"/>
<path d="M91.1322 104.551H89.5947V108.78H91.1322V104.551Z" fill="#9EFAE7"/>
<path d="M94.1723 104.551H92.6348V108.78H94.1723V104.551Z" fill="#9EFAE7"/>
<path d="M78.973 111.141H77.4355V115.37H78.973V111.141Z" fill="#9EFAE7"/>
<path d="M82.0131 111.141H80.4756V115.37H82.0131V111.141Z" fill="#9EFAE7"/>
<path d="M85.0531 111.141H83.5156V115.37H85.0531V111.141Z" fill="#9EFAE7"/>
<path opacity="0.29" d="M88.0922 111.141H86.5547V115.37H88.0922V111.141Z" fill="#9EFAE7"/>
<path d="M91.1322 111.141H89.5947V115.37H91.1322V111.141Z" fill="#9EFAE7"/>
<path opacity="0.29" d="M94.1723 111.141H92.6348V115.37H94.1723V111.141Z" fill="#9EFAE7"/>
<path opacity="0.29" d="M78.973 117.736H77.4355V121.965H78.973V117.736Z" fill="#9EFAE7"/>
<path d="M82.0131 117.736H80.4756V121.965H82.0131V117.736Z" fill="#9EFAE7"/>
<path opacity="0.29" d="M85.0531 117.736H83.5156V121.965H85.0531V117.736Z" fill="#9EFAE7"/>
<path d="M88.0922 117.736H86.5547V121.965H88.0922V117.736Z" fill="#9EFAE7"/>
<path d="M91.1322 117.736H89.5947V121.965H91.1322V117.736Z" fill="#9EFAE7"/>
<path d="M94.1723 117.736H92.6348V121.965H94.1723V117.736Z" fill="#9EFAE7"/>
<path d="M49.334 51.6638H16.7051V119.861H49.334V51.6638Z" fill="#9EFAE7"/>
<path d="M50.2583 50.4907H15.7754V52.4189H50.2583V50.4907Z" fill="#9EFAE7"/>
<path d="M48.238 48.0239H17.7998V57.1867H48.238V48.0239Z" fill="#9EFAE7"/>
<path d="M32.1855 44.2732H20.1318V54.2817H32.1855V44.2732Z" fill="#9EFAE7"/>
<path d="M27.1058 47.0925H20.1318V41.8264H25.1312L27.1058 47.0925Z" fill="#9EFAE7"/>
<path d="M23.6187 37.4514H22.9404V49.1918H23.6187V37.4514Z" fill="#9EFAE7"/>
<path d="M23.8849 36.8423C23.8849 37.1796 23.6135 37.4515 23.2769 37.4515C22.9403 37.4515 22.6689 37.1796 22.6689 36.8423C22.6689 36.505 22.9403 36.2332 23.2769 36.2332C23.6135 36.2332 23.8849 36.505 23.8849 36.8423Z" fill="#9EFAE7"/>
<path d="M319.545 125.051H283.826L279.369 24.7795L319.545 33.1368V125.051Z" fill="#9EFAE7"/>
<path d="M163.711 67.7891V34.2646H158.109V25.2881H156.109V12.118H145.08V2.43668H144.101V12.118H141.94V0H140.96V12.118H133.991V34.2646H130.389V67.7891H127.304V128.847H165.882V67.7891H163.711Z" fill="#9EFAE7"/>
<path d="M397.861 123.808H-28.9023V133.977H397.861V123.808Z" fill="#9EFAE7"/>
<path d="M222.306 131.485H203.409L210.77 93.5706H222.306V131.485Z" fill="#45E7C5"/>
<path d="M403.87 132.965H-44.2119V149H403.87V132.965Z" fill="#45E7C5"/>
<path d="M206.821 61.3198V44.5198H200.751V38.121H197.505V32.7492H196.365V23.5361H196.073V32.7492H194.933V38.121H191.687V44.5198H185.663V61.3198H184.412V91.8286H175.076V126.602H184.412H193.747H208.027V61.3198H206.821Z" fill="#45E7C5"/>
<path d="M241.69 80.6218H212.322V81.1555H213.649V130.916H240.364V81.1555H241.69V80.6218Z" fill="#45E7C5"/>
<path d="M107.768 93.0168H81.7266V134.471H107.768V93.0168Z" fill="#45E7C5"/>
<path d="M77.8026 114.257H33.0195V134.47H77.8026V114.257Z" fill="#45E7C5"/>
<path d="M66.8544 69.093H57.0215V118.733H66.8544V69.093Z" fill="#45E7C5"/>
<path d="M59.7039 55.8523H59.1914V82.8471H59.7039V55.8523Z" fill="#45E7C5"/>
<path d="M61.367 57.8962H60.8545V84.891H61.367V57.8962Z" fill="#45E7C5"/>
<path d="M63.7886 66.022H57.7793V72.6725H63.7886V66.022Z" fill="#45E7C5"/>
<path d="M93.1571 100.438H76.0488V134.47H93.1571V100.438Z" fill="#45E7C5"/>
<path d="M144.1 64.426H111.983V134.471H144.1V64.426Z" fill="#45E7C5"/>
<path d="M140.944 62.0146H115.139V73.6795H140.944V62.0146Z" fill="#45E7C5"/>
<path d="M146.592 65.8911H109.496V66.7117H146.592V65.8911Z" fill="#45E7C5"/>
<path d="M121.299 99.0933H106.165V134.465H121.299V99.0933Z" fill="#45E7C5"/>
<path d="M15.1419 97.7493H-2.22266V134.466H15.1419V97.7493Z" fill="#45E7C5"/>
<path d="M37.998 87.771H3.39453V134.466H37.998V87.771Z" fill="#45E7C5"/>
<path d="M38.8877 85.9785H1.375V87.7708H38.8877V85.9785Z" fill="#45E7C5"/>
<path d="M20.1318 81.1204H4.92773V90.5902H20.1318V81.1204Z" fill="#45E7C5"/>
<path d="M27.653 81.1204H25.1006V86.8798H27.653V81.1204Z" fill="#45E7C5"/>
<path d="M33.0186 81.1204H30.21V86.8798H33.0186V81.1204Z" fill="#45E7C5"/>
<path d="M6.45947 120.268H-11.6738V134.471H6.45947V120.268Z" fill="#45E7C5"/>
<path d="M321.75 118.733H140.944V134.471H321.75V118.733Z" fill="#45E7C5"/>
<path d="M307.315 75.1747C306.174 75.1747 305.245 76.0507 305.149 77.1683L302.607 77.0878C302.612 76.836 302.617 76.5894 302.617 76.3376C302.617 73.1659 302.069 70.0748 301.024 67.1799L303.149 66.3946C303.481 67.1648 304.25 67.7086 305.144 67.7086C306.345 67.7086 307.315 66.7319 307.315 65.5337C307.315 64.3304 306.34 63.3588 305.144 63.3588C303.943 63.3588 302.973 64.3355 302.973 65.5337C302.973 65.7552 303.009 65.9717 303.069 66.1731L300.944 66.9584C299.733 63.7011 297.884 60.6956 295.467 58.0927L297.13 56.5321C297.522 56.9046 298.05 57.1362 298.632 57.1362C299.833 57.1362 300.803 56.1595 300.803 54.9613C300.803 53.7581 299.828 52.7864 298.632 52.7864C297.431 52.7864 296.462 53.7631 296.462 54.9613C296.462 55.495 296.653 55.9833 296.969 56.3609L295.306 57.9216C295.135 57.7403 294.959 57.5591 294.784 57.3829C292.266 54.8606 289.332 52.9022 286.142 51.5681L287.056 49.3378C287.262 49.4033 287.483 49.4385 287.714 49.4385C288.915 49.4385 289.885 48.4618 289.885 47.2636C289.885 46.0604 288.91 45.0887 287.714 45.0887C286.518 45.0887 285.544 46.0654 285.544 47.2636C285.544 48.1497 286.071 48.9149 286.835 49.2522L285.92 51.4775C283.062 50.3195 280.002 49.655 276.846 49.5442L276.947 46.4933C276.972 46.4933 276.992 46.4933 277.017 46.4933C278.218 46.4933 279.188 45.5166 279.188 44.3184C279.188 43.1202 278.213 42.1436 277.017 42.1436C275.821 42.1436 274.847 43.1202 274.847 44.3184C274.847 45.416 275.655 46.3222 276.711 46.4732L276.61 49.5392C276.359 49.5341 276.113 49.5291 275.861 49.5291C272.822 49.5291 269.862 50.0326 267.074 51.0042L266.199 48.5122C266.988 48.1849 267.546 47.4096 267.546 46.4984C267.546 45.2951 266.571 44.3235 265.375 44.3235C264.18 44.3235 263.205 45.3002 263.205 46.4984C263.205 47.7016 264.18 48.6733 265.375 48.6733C265.581 48.6733 265.782 48.643 265.973 48.5877L266.848 51.0797C263.466 52.288 260.341 54.186 257.648 56.6932L256.06 54.9965C256.417 54.6089 256.633 54.0903 256.633 53.5265C256.633 52.3232 255.658 51.3516 254.462 51.3516C253.266 51.3516 252.292 52.3283 252.292 53.5265C252.292 54.7297 253.266 55.7014 254.462 55.7014C255.01 55.7014 255.507 55.5 255.889 55.1627L257.472 56.8593C257.291 57.0305 257.11 57.2067 256.934 57.3829C254.693 59.6283 252.9 62.2009 251.598 64.995L249.578 64.0636C249.654 63.8471 249.694 63.6105 249.694 63.3689C249.694 62.1656 248.719 61.194 247.523 61.194C246.328 61.194 245.353 62.1707 245.353 63.3689C245.353 64.5671 246.328 65.5437 247.523 65.5437C248.398 65.5437 249.146 65.0302 249.493 64.2851L251.498 65.2115C250.056 68.3681 249.242 71.8016 249.116 75.361L246.529 75.2754C246.498 74.1023 245.539 73.1609 244.358 73.1609C243.157 73.1609 242.188 74.1376 242.188 75.3358C242.188 76.539 243.162 77.5107 244.358 77.5107C245.499 77.5107 246.433 76.6347 246.524 75.517L249.111 75.6026C249.106 75.8543 249.101 76.101 249.101 76.3527C249.101 79.5245 249.649 82.6156 250.694 85.5104L248.569 86.2958C248.237 85.5255 247.468 84.9818 246.574 84.9818C245.373 84.9818 244.403 85.9585 244.403 87.1567C244.403 88.3549 245.378 89.3316 246.574 89.3316C247.77 89.3316 248.744 88.3549 248.744 87.1567C248.744 86.9352 248.709 86.7187 248.649 86.5173L250.774 85.7319C251.985 88.9892 253.834 91.9948 256.251 94.5976L254.588 96.1583C254.196 95.7858 253.668 95.5542 253.086 95.5542C251.885 95.5542 250.915 96.5309 250.915 97.7291C250.915 98.9323 251.89 99.904 253.086 99.904C254.286 99.904 255.256 98.9273 255.256 97.7291C255.256 97.1954 255.065 96.7071 254.749 96.3295L256.412 94.7688C256.583 94.9501 256.758 95.1313 256.934 95.3075C258.633 97.0091 260.517 98.449 262.542 99.617L249.443 123.813H247.091V124.502H245.941V125.877H305.802V124.502H304.652V123.813H302.3L289.201 99.617C290.945 98.6101 292.588 97.3968 294.095 95.9972L296.221 98.2678C295.763 98.6655 295.477 99.2545 295.477 99.909C295.477 101.112 296.452 102.084 297.648 102.084C298.843 102.084 299.818 101.107 299.818 99.909C299.818 98.7058 298.843 97.7341 297.648 97.7341C297.185 97.7341 296.763 97.8801 296.412 98.1218L294.271 95.8361C294.452 95.6649 294.633 95.4887 294.809 95.3125C297.05 93.0672 298.843 90.4945 300.145 87.7004L302.511 88.7929C302.466 88.9641 302.446 89.1403 302.446 89.3265C302.446 90.5298 303.421 91.5014 304.617 91.5014C305.812 91.5014 306.787 90.5247 306.787 89.3265C306.787 88.1233 305.812 87.1517 304.617 87.1517C303.687 87.1517 302.893 87.7407 302.582 88.5613L300.245 87.4789C301.687 84.3223 302.501 80.8888 302.627 77.3294L305.174 77.41C305.204 78.583 306.164 79.5295 307.345 79.5295C308.546 79.5295 309.515 78.5528 309.515 77.3546C309.485 76.1463 308.515 75.1747 307.315 75.1747ZM301.893 76.3326C301.893 76.5743 301.888 76.8159 301.883 77.0576L294.387 76.8109C294.392 76.6498 294.392 76.4887 294.392 76.3276C294.392 74.1124 294.005 71.9879 293.291 70.0194L300.341 67.4166C301.361 70.2409 301.893 73.2465 301.893 76.3326ZM294.025 76.8058L277.303 76.2621C277.298 76.1514 277.278 76.0456 277.253 75.945L292.955 70.1503C293.653 72.0835 294.035 74.1627 294.035 76.3326C294.03 76.4887 294.025 76.6498 294.025 76.8058ZM257.663 75.8644L274.384 76.4081C274.389 76.5189 274.409 76.6246 274.435 76.7253L258.733 82.52C258.035 80.5867 257.653 78.5075 257.653 76.3376C257.658 76.1765 257.658 76.0205 257.663 75.8644ZM276.987 75.4264L289.186 63.968C290.769 65.6797 292.025 67.6985 292.864 69.9237L277.163 75.7134C277.118 75.6127 277.057 75.512 276.987 75.4264ZM276.821 75.2452C276.726 75.1596 276.62 75.0841 276.505 75.0287L282.861 59.5225C285.202 60.5093 287.297 61.9693 289.021 63.7917L276.821 75.2452ZM276.284 74.9381C276.198 74.9078 276.103 74.8927 276.012 74.8776L276.555 58.1229C278.7 58.2085 280.745 58.6616 282.639 59.4269L276.284 74.9381ZM275.771 74.8726C275.671 74.8776 275.57 74.8927 275.475 74.9179L269.913 59.1097C271.772 58.4653 273.766 58.1129 275.846 58.1129C276.002 58.1129 276.158 58.1129 276.319 58.1179L275.771 74.8726ZM275.243 74.9985C275.133 75.0488 275.027 75.1143 274.932 75.1847L263.496 62.9611C265.27 61.3198 267.365 60.026 269.676 59.1852L275.243 74.9985ZM274.761 75.3509C274.691 75.4314 274.625 75.517 274.575 75.6127L259.386 68.5896C260.356 66.5305 261.697 64.6778 263.33 63.1272L274.761 75.3509ZM274.47 75.8292C274.43 75.9349 274.404 76.0456 274.389 76.1614L257.668 75.6177C257.763 73.1961 258.326 70.8954 259.276 68.801L274.47 75.8292ZM274.52 76.9518C274.56 77.0374 274.605 77.118 274.661 77.1885L274.56 77.3697L262.496 88.6972C260.914 86.9855 259.653 84.9667 258.818 82.7415L274.52 76.9518ZM274.193 78.0494L266.621 92.0351C265.159 91.1692 263.828 90.1019 262.662 88.8785L274.193 78.0494ZM275.017 77.5409C275.068 77.5761 275.123 77.6063 275.178 77.6365L268.822 93.1427C268.209 92.8859 267.616 92.5939 267.038 92.2717L275.017 77.5409ZM275.399 77.7271C275.485 77.7574 275.58 77.7725 275.671 77.7876L275.128 94.5423C272.982 94.4617 270.937 94.0036 269.043 93.2383L275.399 77.7271ZM275.841 94.5574C275.686 94.5574 275.53 94.5574 275.369 94.5523L275.912 77.7976C276.012 77.7926 276.113 77.7775 276.208 77.7523L281.77 93.5605C279.916 94.2049 277.916 94.5574 275.841 94.5574ZM276.439 77.6667C276.52 77.6315 276.595 77.5862 276.665 77.5409L284.644 92.2767C283.8 92.7449 282.916 93.1477 282.001 93.48L276.439 77.6667ZM277.781 78.583L288.181 89.7041C287.232 90.5852 286.187 91.3655 285.061 92.0301L277.781 78.583ZM277.329 77.7422L277.027 77.1885C277.057 77.1432 277.087 77.0978 277.113 77.0525L292.302 84.0756C291.332 86.1347 289.99 87.9874 288.357 89.538L277.329 77.7422ZM277.213 76.836C277.253 76.7303 277.278 76.6196 277.293 76.5038L294.015 77.0475C293.919 79.4691 293.357 81.7698 292.407 83.8642L277.213 76.836ZM268.687 93.48L265.833 100.443C264.963 100.08 264.114 99.6673 263.285 99.2092L266.868 92.5889C267.456 92.9212 268.058 93.2182 268.687 93.48ZM268.908 93.5706C270.837 94.356 272.932 94.8191 275.118 94.9047L274.872 102.416C271.802 102.305 268.827 101.661 266.049 100.533L268.908 93.5706ZM275.359 94.9148C275.52 94.9198 275.681 94.9198 275.841 94.9198C277.962 94.9198 279.997 94.5624 281.891 93.9029L284.388 101.001C281.675 101.943 278.796 102.431 275.836 102.431C275.595 102.431 275.354 102.426 275.113 102.421L275.359 94.9148ZM282.122 93.8223C283.057 93.485 283.961 93.0722 284.82 92.5939L288.403 99.2142C287.187 99.8838 285.925 100.458 284.619 100.921L282.122 93.8223ZM300.26 67.195L293.211 69.7979C292.357 67.5273 291.071 65.4682 289.458 63.7213L294.939 58.576C297.286 61.1084 299.08 64.0334 300.26 67.195ZM294.261 57.8763C294.432 58.0474 294.603 58.2236 294.769 58.3998L289.287 63.5451C287.528 61.6873 285.388 60.1971 282.996 59.1903L285.85 52.2276C288.96 53.5164 291.814 55.4245 294.261 57.8763ZM285.629 52.1319L282.775 59.0946C280.846 58.3092 278.751 57.8461 276.565 57.7605L276.806 50.249C279.876 50.3598 282.856 51.0042 285.629 52.1319ZM275.841 50.2339C276.083 50.2339 276.324 50.239 276.565 50.244L276.324 57.7554C276.163 57.7504 276.002 57.7504 275.841 57.7504C273.721 57.7504 271.686 58.1078 269.787 58.7674L267.29 51.6688C270.008 50.7223 272.887 50.2339 275.841 50.2339ZM267.064 51.7443L269.561 58.8429C267.199 59.6987 265.059 61.0178 263.25 62.6942L258.115 57.2016C260.738 54.765 263.778 52.9223 267.064 51.7443ZM257.422 57.8763C257.592 57.7051 257.768 57.5339 257.944 57.3678L263.079 62.8604C261.416 64.4412 260.044 66.3342 259.055 68.4335L252.231 65.2769C253.498 62.5633 255.246 60.0612 257.422 57.8763ZM252.131 65.4984L258.954 68.655C257.984 70.7897 257.407 73.1407 257.311 75.6076L249.815 75.361C249.935 71.9073 250.729 68.5695 252.131 65.4984ZM249.795 76.3326C249.795 76.0909 249.8 75.8493 249.805 75.6076L257.301 75.8493C257.296 76.0104 257.296 76.1715 257.296 76.3326C257.296 78.5478 257.683 80.6723 258.396 82.6408L251.347 85.2436C250.327 82.4243 249.795 79.4187 249.795 76.3326ZM251.427 85.4702L258.477 82.8673C259.331 85.1379 260.617 87.197 262.23 88.9439L256.748 94.0892C254.402 91.5568 252.603 88.6318 251.427 85.4702ZM257.422 94.7889C257.251 94.6178 257.08 94.4416 256.914 94.2654L262.396 89.1201C263.587 90.3737 264.948 91.4662 266.446 92.3472L262.858 98.9676C260.899 97.8398 259.07 96.4403 257.422 94.7889ZM301.722 123.808H249.965L262.939 99.8486C263.788 100.317 264.662 100.74 265.556 101.112L264.642 103.343C264.436 103.277 264.215 103.242 263.984 103.242C262.783 103.242 261.813 104.218 261.813 105.417C261.813 106.62 262.788 107.592 263.984 107.592C265.184 107.592 266.154 106.615 266.154 105.417C266.154 104.531 265.627 103.765 264.863 103.428L265.777 101.203C268.636 102.361 271.696 103.025 274.852 103.136L274.776 105.417C273.6 105.442 272.656 106.408 272.656 107.592C272.656 108.795 273.631 109.766 274.826 109.766C276.022 109.766 276.997 108.79 276.997 107.592C276.997 106.454 276.128 105.522 275.017 105.422L275.093 103.136C275.344 103.141 275.59 103.146 275.841 103.146C278.881 103.146 281.841 102.643 284.629 101.671L285.408 103.891C284.669 104.239 284.157 104.989 284.157 105.865C284.157 107.068 285.132 108.04 286.327 108.04C287.528 108.04 288.498 107.063 288.498 105.865C288.498 104.667 287.523 103.69 286.327 103.69C286.081 103.69 285.85 103.73 285.629 103.806L284.85 101.596C286.192 101.117 287.488 100.528 288.739 99.8385L301.722 123.808ZM288.825 98.9726L285.237 92.3523C286.388 91.6726 287.458 90.8721 288.433 89.971L293.568 95.4636C292.106 96.8229 290.513 97.9959 288.825 98.9726ZM294.261 94.7889C294.09 94.9601 293.914 95.1313 293.739 95.2974L288.604 89.8048C290.267 88.224 291.638 86.331 292.628 84.2317L299.451 87.3883C298.185 90.1019 296.442 92.604 294.261 94.7889ZM299.557 87.1668L292.734 84.0102C293.703 81.8755 294.281 79.5244 294.377 77.0576L301.873 77.3043C301.748 80.7579 300.954 84.0957 299.557 87.1668Z" fill="#45E7C5"/>
<path d="M340.481 93.48H312.561V134.471H340.481V93.48Z" fill="#45E7C5"/>
<path d="M364.313 109.414H336.392V134.234H364.313V109.414Z" fill="#45E7C5"/>
<path d="M243.78 105.769H228.119V126.602H243.78V105.769Z" fill="#45E7C5"/>
<path d="M346.265 54.498H326.519V134.471H346.265V54.498Z" fill="#45E7C5"/>
<path d="M378.783 134.47H352.736V87.7708H372.482L378.783 134.47Z" fill="#45E7C5"/>
<path d="M341.843 37.7888H341.16V59.5226H341.843V37.7888Z" fill="#45E7C5"/>
<path d="M344.139 42.4556H343.456V64.1893H344.139V42.4556Z" fill="#45E7C5"/>
<path d="M339.758 45.4563H339.074V67.1901H339.758V45.4563Z" fill="#45E7C5"/>
<path d="M363.076 84H353.756V91.3554H363.076V84Z" fill="#45E7C5"/>
<path d="M362.057 81.3772H354.781V85.5105H362.057V81.3772Z" fill="#45E7C5"/>
<path d="M251.714 72.5366H228.039V149H251.714V72.5366Z" fill="#08C09B"/>
<path d="M253.483 72.9897H226.271V73.7651H253.483V72.9897Z" fill="#08C09B"/>
<path d="M252.744 83.7334H227.004V84.5037H252.744V83.7334Z" fill="#08C09B"/>
<path d="M252.744 94.1345H227.004V94.9048H252.744V94.1345Z" fill="#08C09B"/>
<path d="M252.744 104.536H227.004V105.306H252.744V104.536Z" fill="#08C09B"/>
<path d="M252.744 114.937H227.004V115.707H252.744V114.937Z" fill="#08C09B"/>
<path d="M252.744 125.338H227.004V126.108H252.744V125.338Z" fill="#08C09B"/>
<path d="M252.744 135.739H227.004V136.51H252.744V135.739Z" fill="#08C09B"/>
<path d="M254.382 70.8804H225.371V72.9949H254.382V70.8804Z" fill="#08C09B"/>
<path opacity="0.29" d="M232.632 76.2773H230.17V82.3842H232.632V76.2773Z" fill="#08C09B"/>
<path d="M238.133 76.2773H235.671V82.3842H238.133V76.2773Z" fill="#08C09B"/>
<path d="M243.635 76.2773H241.173V82.3842H243.635V76.2773Z" fill="#08C09B"/>
<path d="M249.137 76.2773H246.675V82.3842H249.137V76.2773Z" fill="#08C09B"/>
<path d="M232.632 86.2656H230.17V92.3724H232.632V86.2656Z" fill="#08C09B"/>
<path opacity="0.29" d="M238.133 86.2656H235.671V92.3724H238.133V86.2656Z" fill="#08C09B"/>
<path d="M243.635 86.2656H241.173V92.3724H243.635V86.2656Z" fill="#08C09B"/>
<path d="M249.137 86.2656H246.675V92.3724H249.137V86.2656Z" fill="#08C09B"/>
<path d="M232.632 96.667H230.17V102.774H232.632V96.667Z" fill="#08C09B"/>
<path d="M238.133 96.667H235.671V102.774H238.133V96.667Z" fill="#08C09B"/>
<path d="M243.635 96.667H241.173V102.774H243.635V96.667Z" fill="#08C09B"/>
<path opacity="0.29" d="M249.137 96.667H246.675V102.774H249.137V96.667Z" fill="#08C09B"/>
<path d="M232.632 107.068H230.17V113.175H232.632V107.068Z" fill="#08C09B"/>
<path opacity="0.29" d="M238.133 107.068H235.671V113.175H238.133V107.068Z" fill="#08C09B"/>
<path opacity="0.29" d="M243.635 107.068H241.173V113.175H243.635V107.068Z" fill="#08C09B"/>
<path d="M249.137 107.068H246.675V113.175H249.137V107.068Z" fill="#08C09B"/>
<path opacity="0.29" d="M232.632 117.469H230.17V123.576H232.632V117.469Z" fill="#08C09B"/>
<path d="M238.133 117.469H235.671V123.576H238.133V117.469Z" fill="#08C09B"/>
<path d="M243.635 117.469H241.173V123.576H243.635V117.469Z" fill="#08C09B"/>
<path d="M249.137 117.469H246.675V123.576H249.137V117.469Z" fill="#08C09B"/>
<path d="M232.632 127.871H230.17V133.977H232.632V127.871Z" fill="#08C09B"/>
<path d="M238.133 127.871H235.671V133.977H238.133V127.871Z" fill="#08C09B"/>
<path opacity="0.29" d="M243.635 127.871H241.173V133.977H243.635V127.871Z" fill="#08C09B"/>
<path d="M249.137 127.871H246.675V133.977H249.137V127.871Z" fill="#08C09B"/>
<path d="M232.632 138.272H230.17V144.379H232.632V138.272Z" fill="#08C09B"/>
<path opacity="0.29" d="M238.133 138.272H235.671V144.379H238.133V138.272Z" fill="#08C09B"/>
<path d="M243.635 138.272H241.173V144.379H243.635V138.272Z" fill="#08C09B"/>
<path opacity="0.29" d="M249.137 138.272H246.675V144.379H249.137V138.272Z" fill="#08C09B"/>
<path d="M237.585 67.9653H229.531V71.9375H237.585V67.9653Z" fill="#08C09B"/>
<path d="M238.133 67.8496H228.988V68.5293H238.133V67.8496Z" fill="#08C09B"/>
<path d="M194.109 149H162.57V76.3478L194.109 68.6199V149Z" fill="#08C09B"/>
<path d="M163.952 75.074H161.184V149.005H163.952V75.074Z" fill="#08C09B"/>
<path d="M171.836 72.9897H169.067V149H171.836V72.9897Z" fill="#08C09B"/>
<path d="M179.719 70.825H176.95V149H179.719V70.825Z" fill="#08C09B"/>
<path d="M187.607 69.063H184.839V149H187.607V69.063Z" fill="#08C09B"/>
<path d="M195.49 67.1851H192.722V149H195.49V67.1851Z" fill="#08C09B"/>
<path opacity="0.29" d="M168.349 81.2766H164.671V86.89H168.349V81.2766Z" fill="#08C09B"/>
<path opacity="0.29" d="M176.236 81.2766H172.559V86.89H176.236V81.2766Z" fill="#08C09B"/>
<path d="M184.12 81.2766H180.442V86.89H184.12V81.2766Z" fill="#08C09B"/>
<path opacity="0.29" d="M192.004 81.2766H188.326V86.89H192.004V81.2766Z" fill="#08C09B"/>
<path d="M168.349 91.0535H164.671V96.6669H168.349V91.0535Z" fill="#08C09B"/>
<path d="M176.236 91.0535H172.559V96.6669H176.236V91.0535Z" fill="#08C09B"/>
<path opacity="0.29" d="M184.12 91.0535H180.442V96.6669H184.12V91.0535Z" fill="#08C09B"/>
<path opacity="0.29" d="M192.004 91.0535H188.326V96.6669H192.004V91.0535Z" fill="#08C09B"/>
<path opacity="0.29" d="M168.349 100.83H164.671V106.444H168.349V100.83Z" fill="#08C09B"/>
<path opacity="0.29" d="M176.236 100.83H172.559V106.444H176.236V100.83Z" fill="#08C09B"/>
<path opacity="0.29" d="M184.12 100.83H180.442V106.444H184.12V100.83Z" fill="#08C09B"/>
<path d="M192.004 100.83H188.326V106.444H192.004V100.83Z" fill="#08C09B"/>
<path opacity="0.29" d="M168.349 110.602H164.671V116.216H168.349V110.602Z" fill="#08C09B"/>
<path d="M176.236 110.602H172.559V116.216H176.236V110.602Z" fill="#08C09B"/>
<path opacity="0.29" d="M184.12 110.602H180.442V116.216H184.12V110.602Z" fill="#08C09B"/>
<path opacity="0.29" d="M192.004 110.602H188.326V116.216H192.004V110.602Z" fill="#08C09B"/>
<path opacity="0.29" d="M168.349 120.379H164.671V125.993H168.349V120.379Z" fill="#08C09B"/>
<path opacity="0.29" d="M176.236 120.379H172.559V125.993H176.236V120.379Z" fill="#08C09B"/>
<path d="M184.12 120.379H180.442V125.993H184.12V120.379Z" fill="#08C09B"/>
<path opacity="0.29" d="M192.004 120.379H188.326V125.993H192.004V120.379Z" fill="#08C09B"/>
<path d="M168.349 130.156H164.671V135.77H168.349V130.156Z" fill="#08C09B"/>
<path d="M176.236 130.156H172.559V135.77H176.236V130.156Z" fill="#08C09B"/>
<path opacity="0.29" d="M184.12 130.156H180.442V135.77H184.12V130.156Z" fill="#08C09B"/>
<path opacity="0.29" d="M192.004 130.156H188.326V135.77H192.004V130.156Z" fill="#08C09B"/>
<path opacity="0.29" d="M168.349 139.933H164.671V145.547H168.349V139.933Z" fill="#08C09B"/>
<path d="M176.236 139.933H172.559V145.547H176.236V139.933Z" fill="#08C09B"/>
<path opacity="0.29" d="M184.12 139.933H180.442V145.547H184.12V139.933Z" fill="#08C09B"/>
<path d="M192.004 139.933H188.326V145.547H192.004V139.933Z" fill="#08C09B"/>
<path d="M72.6069 79.8315V80.5867H71.8533V82.7364H85.0526V149H63.3971V86.1901V82.7364V80.5867H62.6133V79.8315H72.6069Z" fill="#08C09B"/>
<path d="M128.047 109.933H109.497V149.005H128.047V109.933Z" fill="#08C09B"/>
<path d="M43.7318 100.976H28.6533V149.005H43.7318V100.976Z" fill="#08C09B"/>
<path d="M57.1722 110.98H40.7422V149H57.1722V110.98Z" fill="#08C09B"/>
<path d="M40.7475 99.0481H34.0801V104.797H40.7475V99.0481Z" fill="#08C09B"/>
<path d="M59.3883 110.355H41.873V111.76H59.3883V110.355Z" fill="#08C09B"/>
<path d="M73.8279 127.286H55.4082V149H73.8279V127.286Z" fill="#08C09B"/>
<path d="M10.856 109.625H-4.12695V149H10.856V109.625Z" fill="#08C09B"/>
<path d="M2.5811 129.25H-17.1299V149H2.5811V129.25Z" fill="#08C09B"/>
<path d="M0.239559 141.801H-28.9023V149H0.239559V141.801Z" fill="#08C09B"/>
<path d="M34.0745 134.471H10.8564V149H34.0745V134.471Z" fill="#08C09B"/>
<path d="M115.144 142.742H78.9727V149H115.144V142.742Z" fill="#08C09B"/>
<path d="M179.272 142.742H143.101V149H179.272V142.742Z" fill="#08C09B"/>
<path d="M113.732 124.361H99.9852L94.1719 145.869H113.732V124.361Z" fill="#08C09B"/>
<path d="M120.47 93.0671H120.088V116.925H120.47V93.0671Z" fill="#08C09B"/>
<path d="M122.515 101.142H122.003V115.224H122.515V101.142Z" fill="#08C09B"/>
<path d="M126.219 103.635H119.265V110.602H126.219V103.635Z" fill="#08C09B"/>
<path d="M127.299 103.096H118.089V103.72H127.299V103.096Z" fill="#08C09B"/>
<path d="M147.145 128.847H124.671V149H147.145V128.847Z" fill="#08C09B"/>
<path d="M157.289 106.665H142.849V145.546H157.289V106.665Z" fill="#08C09B"/>
<path d="M222.306 113.975H199.238V149H222.306V113.975Z" fill="#08C09B"/>
<path d="M218.307 136.097H192.004V149.005H218.307V136.097Z" fill="#08C09B"/>
<path d="M238.133 144.384H221.029V149.005H238.133V144.384Z" fill="#08C09B"/>
<path d="M275.178 136.097H247.373V149.005H275.178V136.097Z" fill="#08C09B"/>
<path d="M258.445 148.999H293.049V102.304H258.445V148.999Z" fill="#08C09B"/>
<path d="M257.556 102.303H295.068V100.511H257.556V102.303Z" fill="#08C09B"/>
<path d="M276.315 105.119H291.519V95.6493H276.315V105.119Z" fill="#08C09B"/>
<path d="M268.792 101.409H271.345V95.6498H268.792V101.409Z" fill="#08C09B"/>
<path d="M263.428 101.409H266.236V95.6498H263.428V101.409Z" fill="#08C09B"/>
<path d="M316.842 148.999H344.23V80.8024H316.842V148.999Z" fill="#08C09B"/>
<path d="M316.059 81.5557H345.005V79.6275H316.059V81.5557Z" fill="#08C09B"/>
<path d="M317.757 86.3223H343.307V77.1595H317.757V86.3223Z" fill="#08C09B"/>
<path d="M331.231 83.4236H341.351V73.4151H331.231V83.4236Z" fill="#08C09B"/>
<path d="M335.497 76.2319H341.351V70.9658H337.15L335.497 76.2319Z" fill="#08C09B"/>
<path d="M338.422 78.3279H338.99V66.5875H338.422V78.3279Z" fill="#08C09B"/>
<path d="M338.2 65.9817C338.2 66.319 338.426 66.5909 338.708 66.5909C338.989 66.5909 339.215 66.319 339.215 65.9817C339.215 65.6444 338.989 65.3726 338.708 65.3726C338.426 65.3726 338.2 65.6444 338.2 65.9817Z" fill="#08C09B"/>
<path d="M352.736 120.847H340.477V149H352.736V120.847Z" fill="#08C09B"/>
<path d="M319.54 107.118H305.562V149H319.54V107.118Z" fill="#08C09B"/>
<path d="M312.56 149H292.869V126.602L309.485 133.977L312.56 149Z" fill="#08C09B"/>
<path d="M378.783 136.837H348.712V149H378.783V136.837Z" fill="#08C09B"/>
<g opacity="0.52">
<path d="M31.3505 103.408H30.21V104.551H31.3505V103.408Z" fill="white"/>
<path d="M33.6415 103.408H32.501V104.551H33.6415V103.408Z" fill="white"/>
<path d="M31.3505 106.091H30.21V107.234H31.3505V106.091Z" fill="white"/>
<path d="M33.6415 106.091H32.501V107.234H33.6415V106.091Z" fill="white"/>
<path d="M31.3505 108.689H30.21V109.832H31.3505V108.689Z" fill="white"/>
<path d="M36.1894 103.408H35.0488V104.551H36.1894V103.408Z" fill="white"/>
</g>
<path opacity="0.5" d="M114.511 69.0627H113.732V73.3773H114.511V69.0627Z" fill="white"/>
<path opacity="0.5" d="M117.194 69.0627H116.415V73.3773H117.194V69.0627Z" fill="white"/>
<path opacity="0.5" d="M119.877 69.0627H119.099V73.3773H119.877V69.0627Z" fill="white"/>
<path opacity="0.5" d="M122.56 69.0627H121.781V73.3773H122.56V69.0627Z" fill="white"/>
<path opacity="0.5" d="M125.244 69.0627H124.465V73.3773H125.244V69.0627Z" fill="white"/>
<path opacity="0.5" d="M127.926 69.0627H127.147V73.3773H127.926V69.0627Z" fill="white"/>
<path opacity="0.5" d="M130.604 69.0627H129.825V73.3773H130.604V69.0627Z" fill="white"/>
<path opacity="0.5" d="M133.288 69.0627H132.509V73.3773H133.288V69.0627Z" fill="white"/>
<path opacity="0.5" d="M135.97 69.0627H135.191V73.3773H135.97V69.0627Z" fill="white"/>
<path opacity="0.5" d="M138.654 69.0627H137.875V73.3773H138.654V69.0627Z" fill="white"/>
<path opacity="0.5" d="M141.336 69.0627H140.558V73.3773H141.336V69.0627Z" fill="white"/>
<path opacity="0.5" d="M114.511 75.074H113.732V79.3885H114.511V75.074Z" fill="white"/>
<path opacity="0.5" d="M117.194 75.074H116.415V79.3885H117.194V75.074Z" fill="white"/>
<path opacity="0.5" d="M119.877 75.074H119.099V79.3885H119.877V75.074Z" fill="white"/>
<path opacity="0.5" d="M122.56 75.074H121.781V79.3885H122.56V75.074Z" fill="white"/>
<path opacity="0.5" d="M125.244 75.074H124.465V79.3885H125.244V75.074Z" fill="white"/>
<path opacity="0.5" d="M127.926 75.074H127.147V79.3885H127.926V75.074Z" fill="white"/>
<path opacity="0.5" d="M130.604 75.074H129.825V79.3885H130.604V75.074Z" fill="white"/>
<path opacity="0.5" d="M133.288 75.074H132.509V79.3885H133.288V75.074Z" fill="white"/>
<path opacity="0.5" d="M135.97 75.074H135.191V79.3885H135.97V75.074Z" fill="white"/>
<path opacity="0.5" d="M138.654 75.074H137.875V79.3885H138.654V75.074Z" fill="white"/>
<path opacity="0.5" d="M141.336 75.074H140.558V79.3885H141.336V75.074Z" fill="white"/>
<path opacity="0.5" d="M114.511 81.0801H113.732V85.3946H114.511V81.0801Z" fill="white"/>
<path opacity="0.5" d="M117.194 81.0801H116.415V85.3946H117.194V81.0801Z" fill="white"/>
<path opacity="0.5" d="M119.877 81.0801H119.099V85.3946H119.877V81.0801Z" fill="white"/>
<path opacity="0.5" d="M122.56 81.0801H121.781V85.3946H122.56V81.0801Z" fill="white"/>
<path opacity="0.5" d="M125.244 81.0801H124.465V85.3946H125.244V81.0801Z" fill="white"/>
<path opacity="0.5" d="M127.926 81.0801H127.147V85.3946H127.926V81.0801Z" fill="white"/>
<path opacity="0.5" d="M130.604 81.0801H129.825V85.3946H130.604V81.0801Z" fill="white"/>
<path opacity="0.5" d="M133.288 81.0801H132.509V85.3946H133.288V81.0801Z" fill="white"/>
<path opacity="0.5" d="M135.97 81.0801H135.191V85.3946H135.97V81.0801Z" fill="white"/>
<path opacity="0.5" d="M138.654 81.0801H137.875V85.3946H138.654V81.0801Z" fill="white"/>
<path opacity="0.5" d="M141.336 81.0801H140.558V85.3946H141.336V81.0801Z" fill="white"/>
<path opacity="0.5" d="M122.56 87.0913H121.781V91.4058H122.56V87.0913Z" fill="white"/>
<path opacity="0.5" d="M125.244 87.0913H124.465V91.4058H125.244V87.0913Z" fill="white"/>
<path opacity="0.5" d="M127.926 87.0913H127.147V91.4058H127.926V87.0913Z" fill="white"/>
<path opacity="0.5" d="M130.604 87.0913H129.825V91.4058H130.604V87.0913Z" fill="white"/>
<path opacity="0.5" d="M133.288 87.0913H132.509V91.4058H133.288V87.0913Z" fill="white"/>
<path opacity="0.5" d="M135.97 87.0913H135.191V91.4058H135.97V87.0913Z" fill="white"/>
<path opacity="0.5" d="M138.654 87.0913H137.875V91.4058H138.654V87.0913Z" fill="white"/>
<path opacity="0.5" d="M141.336 87.0913H140.558V91.4058H141.336V87.0913Z" fill="white"/>
<path opacity="0.5" d="M125.244 93.4346H124.465V97.7491H125.244V93.4346Z" fill="white"/>
<path opacity="0.5" d="M127.926 93.4346H127.147V97.7491H127.926V93.4346Z" fill="white"/>
<path opacity="0.5" d="M130.604 93.4346H129.825V97.7491H130.604V93.4346Z" fill="white"/>
<path opacity="0.5" d="M133.288 93.4346H132.509V97.7491H133.288V93.4346Z" fill="white"/>
<path opacity="0.5" d="M135.97 93.4346H135.191V97.7491H135.97V93.4346Z" fill="white"/>
<path opacity="0.5" d="M138.654 93.4346H137.875V97.7491H138.654V93.4346Z" fill="white"/>
<path opacity="0.5" d="M141.336 93.4346H140.558V97.7491H141.336V93.4346Z" fill="white"/>
<path opacity="0.33" d="M167.429 79.7761H165.59V84.4481H167.429V79.7761Z" fill="white"/>
<path opacity="0.33" d="M167.429 88.7173H165.59V93.3893H167.429V88.7173Z" fill="white"/>
<path opacity="0.33" d="M167.429 97.6536H165.59V102.326H167.429V97.6536Z" fill="white"/>
<path opacity="0.33" d="M167.429 106.595H165.59V111.267H167.429V106.595Z" fill="white"/>
<path opacity="0.33" d="M167.429 115.022H165.59V119.694H167.429V115.022Z" fill="white"/>
<path opacity="0.33" d="M167.429 123.958H165.59V128.63H167.429V123.958Z" fill="white"/>
<path opacity="0.33" d="M175.317 79.7761H173.479V84.4481H175.317V79.7761Z" fill="white"/>
<path opacity="0.33" d="M175.317 88.7173H173.479V93.3893H175.317V88.7173Z" fill="white"/>
<path opacity="0.33" d="M175.317 97.6536H173.479V102.326H175.317V97.6536Z" fill="white"/>
<path opacity="0.33" d="M175.317 106.595H173.479V111.267H175.317V106.595Z" fill="white"/>
<path opacity="0.33" d="M175.317 115.022H173.479V119.694H175.317V115.022Z" fill="white"/>
<path opacity="0.33" d="M175.317 123.958H173.479V128.63H175.317V123.958Z" fill="white"/>
<path opacity="0.33" d="M183.2 79.7761H181.361V84.4481H183.2V79.7761Z" fill="white"/>
<path opacity="0.33" d="M183.2 88.7173H181.361V93.3893H183.2V88.7173Z" fill="white"/>
<path opacity="0.33" d="M183.2 97.6536H181.361V102.326H183.2V97.6536Z" fill="white"/>
<path opacity="0.33" d="M183.2 106.595H181.361V111.267H183.2V106.595Z" fill="white"/>
<path opacity="0.33" d="M183.2 115.022H181.361V119.694H183.2V115.022Z" fill="white"/>
<path opacity="0.33" d="M183.2 123.958H181.361V128.63H183.2V123.958Z" fill="white"/>
<path opacity="0.33" d="M191.084 79.7761H189.245V84.4481H191.084V79.7761Z" fill="white"/>
<path opacity="0.33" d="M191.084 88.7173H189.245V93.3893H191.084V88.7173Z" fill="white"/>
<path opacity="0.33" d="M191.084 97.6536H189.245V102.326H191.084V97.6536Z" fill="white"/>
<path opacity="0.33" d="M191.084 106.595H189.245V111.267H191.084V106.595Z" fill="white"/>
<path opacity="0.33" d="M191.084 115.022H189.245V119.694H191.084V115.022Z" fill="white"/>
<path opacity="0.33" d="M191.084 123.958H189.245V128.63H191.084V123.958Z" fill="white"/>
<path opacity="0.5" d="M137.503 14.605H135.971V18.693H137.503V14.605Z" fill="white"/>
<path opacity="0.5" d="M141.281 14.605H139.749V18.693H141.281V14.605Z" fill="white"/>
<path opacity="0.5" d="M145.055 14.605H143.522V18.693H145.055V14.605Z" fill="white"/>
<path opacity="0.5" d="M148.828 14.605H147.296V18.693H148.828V14.605Z" fill="white"/>
<path opacity="0.5" d="M137.503 21.4165H135.971V25.5045H137.503V21.4165Z" fill="white"/>
<path opacity="0.5" d="M141.281 21.4165H139.749V25.5045H141.281V21.4165Z" fill="white"/>
<path opacity="0.5" d="M145.055 21.4165H143.522V25.5045H145.055V21.4165Z" fill="white"/>
<path opacity="0.5" d="M148.828 21.4165H147.296V25.5045H148.828V21.4165Z" fill="white"/>
<path opacity="0.5" d="M137.503 28.2283H135.971V32.3163H137.503V28.2283Z" fill="white"/>
<path opacity="0.5" d="M141.281 28.2283H139.749V32.3163H141.281V28.2283Z" fill="white"/>
<path opacity="0.5" d="M153.114 14.605H151.581V18.693H153.114V14.605Z" fill="white"/>
<path opacity="0.4" d="M35.0538 56.0386H34.0791V59.7893H35.0538V56.0386Z" fill="white"/>
<path opacity="0.4" d="M38.4855 56.0386H37.5107V59.7893H38.4855V56.0386Z" fill="white"/>
<path opacity="0.4" d="M42.5001 56.0386H41.5254V59.7893H42.5001V56.0386Z" fill="white"/>
<path opacity="0.4" d="M45.9367 56.0386H44.9619V59.7893H45.9367V56.0386Z" fill="white"/>
<path opacity="0.4" d="M27.4269 56.0386H26.4521V59.7893H27.4269V56.0386Z" fill="white"/>
<path opacity="0.4" d="M30.8585 56.0386H29.8838V59.7893H30.8585V56.0386Z" fill="white"/>
<path opacity="0.4" d="M35.0538 62.5481H34.0791V66.2988H35.0538V62.5481Z" fill="white"/>
<path opacity="0.4" d="M38.4855 62.5481H37.5107V66.2988H38.4855V62.5481Z" fill="white"/>
<path opacity="0.4" d="M42.5001 62.5481H41.5254V66.2988H42.5001V62.5481Z" fill="white"/>
<path opacity="0.4" d="M45.9367 62.5481H44.9619V66.2988H45.9367V62.5481Z" fill="white"/>
<path opacity="0.4" d="M27.4269 62.5481H26.4521V66.2988H27.4269V62.5481Z" fill="white"/>
<path opacity="0.4" d="M30.8585 62.5481H29.8838V66.2988H30.8585V62.5481Z" fill="white"/>
<path opacity="0.4" d="M35.0538 69.0579H34.0791V72.8085H35.0538V69.0579Z" fill="white"/>
<path opacity="0.4" d="M38.4855 69.0579H37.5107V72.8085H38.4855V69.0579Z" fill="white"/>
<path opacity="0.4" d="M42.5001 69.0579H41.5254V72.8085H42.5001V69.0579Z" fill="white"/>
<path opacity="0.4" d="M45.9367 69.0579H44.9619V72.8085H45.9367V69.0579Z" fill="white"/>
<path opacity="0.4" d="M27.4269 69.0579H26.4521V72.8085H27.4269V69.0579Z" fill="white"/>
<path opacity="0.4" d="M30.8585 69.0579H29.8838V72.8085H30.8585V69.0579Z" fill="white"/>
<path opacity="0.5" d="M217.17 84.7703H215.663V90.5851H217.17V84.7703Z" fill="white"/>
<path opacity="0.5" d="M221.784 84.7703H220.276V90.5851H221.784V84.7703Z" fill="white"/>
<path opacity="0.5" d="M226.125 84.7703H224.617V90.5851H226.125V84.7703Z" fill="white"/>
<path opacity="0.33" d="M320.69 85.9785H319.544V89.2459H320.69V85.9785Z" fill="white"/>
<path opacity="0.33" d="M324.277 85.9785H323.132V89.2459H324.277V85.9785Z" fill="white"/>
<path opacity="0.33" d="M320.69 85.9785H319.544V89.2459H320.69V85.9785Z" fill="white"/>
<path opacity="0.33" d="M324.277 85.9785H323.132V89.2459H324.277V85.9785Z" fill="white"/>
<path opacity="0.33" d="M327.664 85.9785H326.519V89.2459H327.664V85.9785Z" fill="white"/>
<path opacity="0.33" d="M331.251 85.9785H330.105V89.2459H331.251V85.9785Z" fill="white"/>
<path opacity="0.33" d="M320.69 91.8438H319.544V95.1111H320.69V91.8438Z" fill="white"/>
<path opacity="0.33" d="M324.277 91.8438H323.132V95.1111H324.277V91.8438Z" fill="white"/>
<path opacity="0.33" d="M320.69 91.8438H319.544V95.1111H320.69V91.8438Z" fill="white"/>
<path opacity="0.33" d="M324.277 91.8438H323.132V95.1111H324.277V91.8438Z" fill="white"/>
<path opacity="0.33" d="M327.664 91.8438H326.519V95.1111H327.664V91.8438Z" fill="white"/>
<path opacity="0.33" d="M331.251 91.8438H330.105V95.1111H331.251V91.8438Z" fill="white"/>
<path opacity="0.33" d="M320.69 98.0864H319.544V101.354H320.69V98.0864Z" fill="white"/>
<path opacity="0.33" d="M324.277 98.0864H323.132V101.354H324.277V98.0864Z" fill="white"/>
<path opacity="0.33" d="M320.69 98.0864H319.544V101.354H320.69V98.0864Z" fill="white"/>
<path opacity="0.33" d="M324.277 98.0864H323.132V101.354H324.277V98.0864Z" fill="white"/>
<path opacity="0.33" d="M327.664 98.0864H326.519V101.354H327.664V98.0864Z" fill="white"/>
<path opacity="0.33" d="M331.251 98.0864H330.105V101.354H331.251V98.0864Z" fill="white"/>
<path opacity="0.33" d="M335.171 85.9785H334.025V89.2459H335.171V85.9785Z" fill="white"/>
<path opacity="0.33" d="M335.171 91.8438H334.025V95.1111H335.171V91.8438Z" fill="white"/>
<path opacity="0.33" d="M338.758 85.9785H337.612V89.2459H338.758V85.9785Z" fill="white"/>
<path opacity="0.33" d="M231.4 76.2771H230.169V81.377H231.4V76.2771Z" fill="white"/>
<path opacity="0.33" d="M237.52 76.2771H236.289V81.377H237.52V76.2771Z" fill="white"/>
<path opacity="0.33" d="M243.634 76.2771H242.403V81.377H243.634V76.2771Z" fill="white"/>
<path opacity="0.33" d="M249.75 76.2771H248.519V81.377H249.75V76.2771Z" fill="white"/>
<path opacity="0.33" d="M231.4 86.769H230.169V91.869H231.4V86.769Z" fill="white"/>
<path opacity="0.33" d="M237.52 86.769H236.289V91.869H237.52V86.769Z" fill="white"/>
<path opacity="0.33" d="M243.634 86.769H242.403V91.869H243.634V86.769Z" fill="white"/>
<path opacity="0.33" d="M249.75 86.769H248.519V91.869H249.75V86.769Z" fill="white"/>
<path opacity="0.33" d="M231.4 97.5227H230.169V102.623H231.4V97.5227Z" fill="white"/>
<path opacity="0.33" d="M237.52 97.5227H236.289V102.623H237.52V97.5227Z" fill="white"/>
<path opacity="0.33" d="M243.634 97.5227H242.403V102.623H243.634V97.5227Z" fill="white"/>
<path opacity="0.33" d="M249.75 97.5227H248.519V102.623H249.75V97.5227Z" fill="white"/>
<path opacity="0.33" d="M231.4 108.276H230.169V113.376H231.4V108.276Z" fill="white"/>
<path opacity="0.33" d="M237.52 108.276H236.289V113.376H237.52V108.276Z" fill="white"/>
<path opacity="0.33" d="M243.634 108.276H242.403V113.376H243.634V108.276Z" fill="white"/>
<path opacity="0.33" d="M249.75 108.276H248.519V113.376H249.75V108.276Z" fill="white"/>
<path opacity="0.33" d="M231.4 118.043H230.169V123.143H231.4V118.043Z" fill="white"/>
<path opacity="0.33" d="M237.52 118.043H236.289V123.143H237.52V118.043Z" fill="white"/>
<path opacity="0.33" d="M243.634 118.043H242.403V123.143H243.634V118.043Z" fill="white"/>
<path opacity="0.33" d="M231.4 128.938H230.169V134.038H231.4V128.938Z" fill="white"/>
<path opacity="0.33" d="M237.52 128.938H236.289V134.038H237.52V128.938Z" fill="white"/>
<path opacity="0.33" d="M243.634 128.938H242.403V134.038H243.634V128.938Z" fill="white"/>
<path opacity="0.33" d="M249.75 118.043H248.519V123.143H249.75V118.043Z" fill="white"/>
</g>
<defs>
<clipPath id="clip0_13_802">
<rect width="460" height="149" fill="white" transform="translate(-50)"/>
</clipPath>
</defs>
</svg>
