<svg width="16" height="20" viewBox="0 0 16 20" fill="none" xmlns="http://www.w3.org/2000/svg">
<path d="M8.00033 10.6876C7.11421 10.6876 6.36942 10.3859 5.76595 9.78242C5.16248 9.17895 4.86074 8.43416 4.86074 7.54805C4.86074 6.66194 5.16248 5.91714 5.76595 5.31367C6.36942 4.7102 7.11421 4.40846 8.00033 4.40846C8.88644 4.40846 9.63123 4.7102 10.2347 5.31367C10.8382 5.91714 11.1399 6.66194 11.1399 7.54805C11.1399 8.43416 10.8382 9.17895 10.2347 9.78242C9.63123 10.3859 8.88644 10.6876 8.00033 10.6876ZM8.00033 9.31263C8.51977 9.31263 8.94373 9.14839 9.2722 8.81992C9.60067 8.49145 9.76491 8.06749 9.76491 7.54805C9.76491 7.0286 9.60067 6.60464 9.2722 6.27617C8.94373 5.9477 8.51977 5.78346 8.00033 5.78346C7.48088 5.78346 7.05692 5.9477 6.72845 6.27617C6.39998 6.60464 6.23574 7.0286 6.23574 7.54805C6.23574 8.06749 6.39998 8.49145 6.72845 8.81992C7.05692 9.14839 7.48088 9.31263 8.00033 9.31263ZM8.00033 19.1439C5.86144 18.6092 4.10449 17.3678 2.72949 15.4199C1.35449 13.472 0.666992 11.3369 0.666992 9.01471V3.56055L8.00033 0.810547L15.3337 3.56055V9.01471C15.3337 11.3369 14.6462 13.472 13.2712 15.4199C11.8962 17.3678 10.1392 18.6092 8.00033 19.1439ZM8.00033 2.27721L2.04199 4.52305V9.01471C2.04199 9.97721 2.17567 10.8977 2.44303 11.7762C2.7104 12.6546 3.08852 13.4682 3.57741 14.2168C4.28019 13.8349 4.99442 13.5484 5.72012 13.3574C6.44581 13.1664 7.20588 13.071 8.00033 13.071C8.79477 13.071 9.55484 13.1664 10.2805 13.3574C11.0062 13.5484 11.7205 13.8349 12.4232 14.2168C12.9121 13.4682 13.2903 12.6546 13.5576 11.7762C13.825 10.8977 13.9587 9.97721 13.9587 9.01471V4.52305L8.00033 2.27721ZM8.00033 14.446C7.40449 14.446 6.80866 14.5224 6.21283 14.6751C5.61699 14.8279 5.0288 15.0571 4.44824 15.3626C4.93713 15.8974 5.47949 16.3671 6.07533 16.772C6.67116 17.1769 7.31283 17.4939 8.00033 17.723C8.68783 17.4939 9.32949 17.1769 9.92533 16.772C10.5212 16.3671 11.0635 15.8974 11.5524 15.3626C10.9719 15.0571 10.3837 14.8279 9.78783 14.6751C9.19199 14.5224 8.59616 14.446 8.00033 14.446Z" fill="#10CFA8"/>
</svg>
