<svg width="21" height="20" viewBox="0 0 21 20" fill="none" xmlns="http://www.w3.org/2000/svg">
<path d="M15.4085 19.2503H5.23346V7.51699L11.6043 0.916992L12.498 1.62741C12.5897 1.7038 12.6585 1.81074 12.7043 1.94824C12.7501 2.08574 12.773 2.2538 12.773 2.45241V2.68158L11.7418 7.51699H18.5939C18.9605 7.51699 19.2814 7.65449 19.5564 7.92949C19.8314 8.20449 19.9689 8.52533 19.9689 8.89199V10.7675C19.9689 10.8769 19.9803 10.9889 20.0033 11.1035C20.0262 11.218 20.0147 11.3288 19.9689 11.4357L17.0814 18.0816C16.9457 18.4062 16.7197 18.6822 16.4032 18.9094C16.0867 19.1367 15.7551 19.2503 15.4085 19.2503ZM6.60846 17.8753H15.7064L18.5939 11.0232V8.89199H10.046L11.2605 3.18574L6.60846 8.08991V17.8753ZM5.23346 7.51699V8.89199H2.18555V17.8753H5.23346V19.2503H0.810547V7.51699H5.23346Z" fill="#10CFA8"/>
</svg>
