<svg width="16" height="20" viewBox="0 0 16 20" fill="none" xmlns="http://www.w3.org/2000/svg">
<path d="M8.005 11.9705C8.56716 11.9705 9.04685 11.7757 9.44408 11.3861C9.8413 10.9965 10.0399 10.5153 10.0399 9.94238C10.0399 9.36947 9.83974 8.8844 9.4394 8.48717C9.03908 8.08995 8.55783 7.89134 7.99565 7.89134C7.43349 7.89134 6.9538 8.08995 6.55658 8.48717C6.15935 8.8844 5.96074 9.36947 5.96074 9.94238C5.96074 10.5153 6.16091 10.9965 6.56125 11.3861C6.96157 11.7757 7.44282 11.9705 8.005 11.9705ZM8.00033 17.7455C8.71838 17.5011 9.45171 17.1153 10.2003 16.5882C10.9489 16.0611 11.5524 15.4615 12.0107 14.7893L9.90241 12.7726C9.61213 12.9406 9.30535 13.0781 8.98205 13.1851C8.65874 13.292 8.3315 13.3455 8.00033 13.3455C7.0531 13.3455 6.2472 13.017 5.58262 12.3601C4.91803 11.7031 4.58574 10.8972 4.58574 9.94238C4.58574 8.98752 4.91803 8.1778 5.58262 7.51322C6.2472 6.84863 7.0531 6.51634 8.00033 6.51634C8.94755 6.51634 9.75345 6.84863 10.418 7.51322C11.0826 8.1778 11.4149 8.99134 11.4149 9.95384C11.4149 10.2747 11.3691 10.5955 11.2774 10.9163C11.1857 11.2372 11.0406 11.5275 10.842 11.7872L12.767 13.6205C13.1337 12.9636 13.4239 12.2412 13.6378 11.4533C13.8517 10.6654 13.9587 9.86005 13.9587 9.03717V4.48858L8.00033 2.32259L2.04199 4.48858V9.03717C2.04199 11.0386 2.59581 12.8452 3.70345 14.457C4.81109 16.0688 6.24338 17.165 8.00033 17.7455ZM8.00033 19.1663C5.86144 18.6316 4.10449 17.3903 2.72949 15.4424C1.35449 13.4945 0.666992 11.3594 0.666992 9.03717V3.58301L8.00033 0.833008L15.3337 3.58301V9.03717C15.3337 11.3594 14.6462 13.4945 13.2712 15.4424C11.8962 17.3903 10.1392 18.6316 8.00033 19.1663Z" fill="#10CFA8"/>
</svg>
